<?xml version="1.0" encoding="UTF-8" standalone="no"?>
<!-- Created with Inkscape (http://www.inkscape.org/) -->

<svg
   width="177.8817mm"
   height="97.930893mm"
   viewBox="0 0 177.8817 97.930893"
   version="1.1"
   id="svg1"
   inkscape:version="1.4.1 (1:1.4.1+202503302257+93de688d07)"
   sodipodi:docname="logo_primary.svg"
   xmlns:inkscape="http://www.inkscape.org/namespaces/inkscape"
   xmlns:sodipodi="http://sodipodi.sourceforge.net/DTD/sodipodi-0.dtd"
   xmlns="http://www.w3.org/2000/svg"
   xmlns:svg="http://www.w3.org/2000/svg">
  <sodipodi:namedview
     id="namedview1"
     pagecolor="#ffffff"
     bordercolor="#999999"
     borderopacity="1"
     inkscape:showpageshadow="0"
     inkscape:pageopacity="0"
     inkscape:pagecheckerboard="0"
     inkscape:deskcolor="#d1d1d1"
     inkscape:document-units="mm"
     inkscape:zoom="0.69308361"
     inkscape:cx="336.17878"
     inkscape:cy="230.85238"
     inkscape:window-width="1920"
     inkscape:window-height="961"
     inkscape:window-x="0"
     inkscape:window-y="0"
     inkscape:window-maximized="1"
     inkscape:current-layer="text6" />
  <defs
     id="defs1" />
  <g
     inkscape:label="Layer 1"
     inkscape:groupmode="layer"
     id="layer1"
     transform="translate(-16.059176,-87.443967)">
    <path
       id="path370"
       style="fill:none;stroke:#004fce;stroke-width:3.47707;stroke-linejoin:round;stroke-dasharray:none;stroke-dashoffset:3.77953;stroke-opacity:1"
       d="m 48.24294,89.182502 a 15.083836,15.083836 0 0 0 -0.206187,0.01291 15.083836,15.083836 0 0 0 -0.202573,-0.0078 15.083836,15.083836 0 0 0 -0.772046,0.07028 15.083836,15.083836 0 0 0 -0.978233,0.08888 15.083836,15.083836 0 0 0 -0.962216,0.188618 15.083836,15.083836 0 0 0 -0.957048,0.214974 15.083836,15.083836 0 0 0 -0.926041,0.311092 15.083836,15.083836 0 0 0 -0.925008,0.338998 15.083836,15.083836 0 0 0 -0.874365,0.426847 15.083836,15.083836 0 0 0 -0.875917,0.457337 15.083836,15.083836 0 0 0 -0.814938,0.538985 15.083836,15.083836 0 0 0 -0.80305,0.563272 15.083836,15.083836 0 0 0 -0.745175,0.646472 15.083836,15.083836 0 0 0 -0.719852,0.659908 15.083836,15.083836 0 0 0 -0.648538,0.730189 15.083836,15.083836 0 0 0 -0.633037,0.752925 15.083836,15.083836 0 0 0 -0.548804,0.809252 15.083836,15.083836 0 0 0 -0.530201,0.829924 15.083836,15.083836 0 0 0 -0.435632,0.866613 15.083836,15.083836 0 0 0 -0.421163,0.898655 15.083836,15.083836 0 0 0 -0.31936,0.914673 15.083836,15.083836 0 0 0 -0.300239,0.943614 15.083836,15.083836 0 0 0 -0.199472,0.9586 15.083836,15.083836 0 0 0 -0.174149,0.96531 15.083836,15.083836 0 0 0 -0.07338,0.97617 15.083836,15.083836 0 0 0 -0.05839,0.77618 15.083836,15.083836 0 0 0 0.01138,0.20516 15.083836,15.083836 0 0 0 -0.0098,0.20412 15.083836,15.083836 0 0 0 0.06408,0.7798 15.083836,15.083836 0 0 0 0.0801,0.96945 15.083836,15.083836 0 0 0 0.180867,0.96531 15.083836,15.083836 0 0 0 0.207224,0.96118 15.083836,15.083836 0 0 0 0.301789,0.92346 15.083836,15.083836 0 0 0 0.331248,0.93018 15.083836,15.083836 0 0 0 0.422711,0.88521 15.083836,15.083836 0 0 0 0.445969,0.87178 15.083836,15.083836 0 0 0 0.532267,0.82011 15.083836,15.083836 0 0 0 0.559655,0.81235 15.083836,15.083836 0 0 0 0.63097,0.74001 15.083836,15.083836 0 0 0 0.65939,0.73226 15.083836,15.083836 0 0 0 0.731739,0.66042 15.083836,15.083836 0 0 0 0.740524,0.63355 15.083836,15.083836 0 0 0 0.812353,0.56121 15.083836,15.083836 0 0 0 0.814938,0.53072 15.083836,15.083836 0 0 0 0.882115,0.45268 15.083836,15.083836 0 0 0 0.875401,0.41961 15.083836,15.083836 0 0 0 0.929658,0.3328 15.083836,15.083836 0 0 0 0.923457,0.30334 15.083836,15.083836 0 0 0 0.966867,0.21032 15.083836,15.083836 0 0 0 0.956013,0.18035 15.083836,15.083836 0 0 0 0.982369,0.0822 15.083836,15.083836 0 0 0 0.76998,0.0646 15.083836,15.083836 0 0 0 0.204121,-0.009 15.083836,15.083836 0 0 0 0.205155,0.0114 15.083836,15.083836 0 0 0 0.782899,-0.0579 15.083836,15.083836 0 0 0 0.966349,-0.0708 15.083836,15.083836 0 0 0 0.975135,-0.17415 15.083836,15.083836 0 0 0 0.953947,-0.19741 15.083836,15.083836 0 0 0 0.930175,-0.29455 15.083836,15.083836 0 0 0 0.932243,-0.3235 15.083836,15.083836 0 0 0 0.887801,-0.41496 15.083836,15.083836 0 0 0 0.873848,-0.4377 15.083836,15.083836 0 0 0 0.828892,-0.52762 15.083836,15.083836 0 0 0 0.813903,-0.55035 15.083836,15.083836 0 0 0 0.749308,-0.62838 15.083836,15.083836 0 0 0 0.732771,-0.64854 15.083836,15.083836 0 0 0 0.668692,-0.72709 15.083836,15.083836 0 0 0 0.639755,-0.73587 15.083836,15.083836 0 0 0 0.566891,-0.80667 15.083836,15.083836 0 0 0 0.538469,-0.81029 15.083836,15.083836 0 0 0 0.45837,-0.8754 15.083836,15.083836 0 0 0 0.428913,-0.87488 15.083836,15.083836 0 0 0 0.340032,-0.92449 15.083836,15.083836 0 0 0 0.312126,-0.92501 15.083836,15.083836 0 0 0 0.216006,-0.95343 15.083836,15.083836 0 0 0 0.191204,-0.96635 15.083836,15.083836 0 0 0 0.08992,-0.97617 15.083836,15.083836 0 0 0 0.07131,-0.77308 15.083836,15.083836 0 0 0 -0.0078,-0.20308 15.083836,15.083836 0 0 0 0.01344,-0.20568 l -0.0088,-0.51624 a 15.083836,15.083836 0 0 0 -0.05168,-0.5178 15.083836,15.083836 0 0 0 -0.09715,-0.97462 15.083836,15.083836 0 0 0 -0.16433,-0.96738 15.083836,15.083836 0 0 0 -0.221175,-0.94826 15.083836,15.083836 0 0 0 -0.290939,-0.945686 15.083836,15.083836 0 0 0 -0.34313,-0.91209 A 15.083836,15.083836 0 0 0 61.72017,97.592313 15.083836,15.083836 0 0 0 61.258699,96.726215 15.083836,15.083836 0 0 0 60.73832,95.894743 15.083836,15.083836 0 0 0 60.171429,95.099959 15.083836,15.083836 0 0 0 59.546144,94.340316 15.083836,15.083836 0 0 0 58.879,93.625113 15.083836,15.083836 0 0 0 58.162765,92.955387 15.083836,15.083836 0 0 0 57.405705,92.330102 15.083836,15.083836 0 0 0 56.611955,91.761661 15.083836,15.083836 0 0 0 55.77893,91.239212 15.083836,15.083836 0 0 0 54.914901,90.776707 15.083836,15.083836 0 0 0 54.025549,90.368981 15.083836,15.083836 0 0 0 53.10726,90.022232 15.083836,15.083836 0 0 0 52.169333,89.732328 15.083836,15.083836 0 0 0 51.219519,89.509086 15.083836,15.083836 0 0 0 50.249035,89.342687 15.083836,15.083836 0 0 0 49.27752,89.244502 15.083836,15.083836 0 0 0 48.759206,89.192308 Z" />
    <path
       style="fill:none;stroke:#004fce;stroke-width:3.96875;stroke-linecap:round;stroke-linejoin:round;stroke-dashoffset:3.77953;stroke-opacity:1"
       d="m 40.308542,175.31127 -8.173395,-8.34386 z"
       id="path2"
       sodipodi:nodetypes="ccc" />
    <path
       style="fill:none;stroke:#004fce;stroke-width:3.96875;stroke-linecap:round;stroke-linejoin:round;stroke-dashoffset:3.77953;stroke-opacity:1"
       d="m 31.961665,183.40983 8.346877,-8.09856 z"
       id="path3"
       sodipodi:nodetypes="ccc" />
    <path
       id="path4"
       style="fill:none;stroke:#004fce;stroke-width:4.20164;stroke-linecap:round;stroke-linejoin:round;stroke-dashoffset:3.77953;stroke-opacity:1"
       d="M 40.155898,175.31127 H 28.579782 A 10.419784,10.419784 0 0 1 18.159996,164.89148 v -20.72735 a 16.627512,16.627512 0 0 1 16.627512,-16.62751 v 0 h 27.863741 a 15.631756,15.631756 0 0 1 15.631758,15.63176 l 2e-6,0.2372" />
    <g
       id="g5"
       transform="matrix(0.26458333,0,0,0.26458333,-125.39713,-14.498505)"
       style="stroke:#004fce;stroke-opacity:1">
      <path
         style="fill:none;stroke:#004fce;stroke-width:15;stroke-linecap:round;stroke-linejoin:round;stroke-dashoffset:3.77953;stroke-opacity:1"
         d="m 769.97194,641.96086 -34.92572,-32.4515 z"
         id="path2-6"
         sodipodi:nodetypes="ccc" />
      <path
         style="fill:none;stroke:#004fce;stroke-width:15;stroke-linecap:round;stroke-linejoin:round;stroke-dashoffset:3.77953;stroke-opacity:1"
         d="m 735.04622,676.43041 34.92572,-34.46955 z"
         id="path3-7"
         sodipodi:nodetypes="ccc" />
      <path
         style="fill:none;stroke:#004fce;stroke-width:13.4263;stroke-linecap:round;stroke-linejoin:round;stroke-dashoffset:3.77953;stroke-opacity:1"
         d="M 761.76534,641.96086 H 697.79045 Z"
         id="path5" />
      <rect
         style="fill:none;stroke:#004fce;stroke-width:12.6376;stroke-linecap:round;stroke-linejoin:round;stroke-dasharray:none;stroke-dashoffset:3.77953;stroke-opacity:1"
         id="rect5"
         width="76.187721"
         height="68.386803"
         x="617.61401"
         y="607.76746" />
    </g>
    <g
       id="text6"
       style="font-weight:bold;font-size:36.689px;line-height:0.9;font-family:'Roboto Slab';-inkscape-font-specification:'Roboto Slab Bold';fill:#004fce;stroke-width:3.96875;stroke-linecap:round;stroke-linejoin:round;stroke-dashoffset:3.77953"
       aria-label="Test&#10;Flow">
      <path
         style="font-weight:800;font-family:'Inter 28pt';-inkscape-font-specification:'Inter 28pt Ultra-Bold';baseline-shift:baseline"
         d="m 89.678197,124.21223 v -5.41019 h 22.214043 v 5.41019 h -7.90032 v 21.28249 h -6.413407 v -21.28249 z m 29.720243,21.69453 q -2.9559,0 -5.17731,-1.25402 -2.20349,-1.25402 -3.42168,-3.51126 -1.21819,-2.25723 -1.21819,-5.21313 0,-2.93799 1.21819,-5.1773 1.21819,-2.25724 3.38585,-3.52917 2.18558,-1.28985 5.03399,-1.28985 2.13183,0 3.88746,0.71658 1.75562,0.69867 3.02756,2.00643 1.28984,1.28985 1.98851,3.09922 0.71658,1.80937 0.71658,4.03077 v 1.64814 h -17.21588 v -3.67248 h 14.29581 l -2.8305,0.77033 q 0,-1.25402 -0.44786,-2.14975 -0.44786,-0.91364 -1.28985,-1.39734 -0.82407,-0.5016 -2.00643,-0.5016 -1.16444,0 -2.00643,0.5016 -0.82407,0.4837 -1.27193,1.37943 -0.44786,0.89572 -0.44786,2.14974 v 2.68718 q 0,1.32568 0.46577,2.29307 0.4837,0.94947 1.37942,1.45107 0.89573,0.50161 2.13184,0.50161 0.89572,0 1.59439,-0.2508 0.71658,-0.25081 1.20028,-0.69867 0.48369,-0.46578 0.71658,-1.09279 l 5.55351,0.19706 q -0.37621,1.86312 -1.66605,3.29628 -1.28985,1.41525 -3.24254,2.2214 -1.95268,0.78825 -4.35323,0.78825 z m 20.54798,0.0358 q -2.61552,0 -4.63987,-0.77032 -2.00643,-0.78824 -3.22462,-2.22141 -1.20027,-1.45107 -1.41524,-3.43959 l 6.01928,-0.19706 q 0.19706,1.09279 1.00322,1.7198 0.82407,0.62701 2.2214,0.62701 1.28985,0 2.00643,-0.44787 0.7345,-0.44786 0.7345,-1.18236 0,-0.62701 -0.59118,-1.02113 -0.59118,-0.39412 -1.73771,-0.60909 l -3.4396,-0.62701 q -2.84841,-0.51952 -4.3174,-1.93477 -1.45108,-1.41525 -1.45108,-3.67249 0,-1.89894 1.02113,-3.27836 1.03904,-1.39733 2.9559,-2.14974 1.91686,-0.77033 4.56821,-0.77033 2.63344,0 4.5503,0.77033 1.91685,0.77032 3.00964,2.18557 1.09279,1.39734 1.20027,3.35002 l -5.64308,0.19706 q -0.0717,-0.9853 -0.87781,-1.61231 -0.80616,-0.64492 -2.04226,-0.64492 -1.18236,0 -1.88103,0.46578 -0.69867,0.46578 -0.69867,1.16444 0,0.6091 0.51953,1.02113 0.53743,0.39412 1.57648,0.6091 l 3.79788,0.68075 q 2.9559,0.55535 4.35324,1.82728 1.39733,1.27194 1.39733,3.38585 0,1.9706 -1.12861,3.45751 -1.12862,1.469 -3.17088,2.29306 -2.02434,0.82407 -4.6757,0.82407 z m 23.61138,-19.61643 v 4.74736 h -13.11345 v -4.74736 z m -10.01423,-5.06982 h 6.19843 v 17.93247 q 0,0.87781 0.35829,1.2361 0.37621,0.34038 1.36151,0.34038 0.42995,0 1.09279,0 0.66283,-0.0179 0.94947,-0.0358 l 0.17914,4.71153 q -0.60909,0.0717 -1.59439,0.0896 -0.9853,0.0358 -1.98852,0.0358 -3.35002,0 -4.96233,-1.32568 -1.59439,-1.34359 -1.59439,-4.12034 z"
         id="path6" />
      <path
         style="font-weight:800;font-family:'Inter 28pt';-inkscape-font-specification:'Inter 28pt Ultra-Bold';baseline-shift:baseline"
         d="m 90.627668,178.73954 v -26.69268 h 19.007342 v 5.4102 H 97.041077 v 5.92971 h 11.716113 v 5.23105 H 97.041077 v 10.12172 z m 27.875042,-26.69268 v 26.69268 h -6.19844 v -26.69268 z m 12.79099,27.10472 q -3.00965,0 -5.26688,-1.23611 -2.23932,-1.2361 -3.47542,-3.47542 -1.23611,-2.23932 -1.23611,-5.26688 0,-3.00964 1.23611,-5.24896 1.2361,-2.23932 3.47542,-3.49334 2.25723,-1.25402 5.26688,-1.25402 3.00964,0 5.24896,1.25402 2.23932,1.25402 3.47542,3.49334 1.23611,2.23932 1.23611,5.24896 0,3.02756 -1.23611,5.26688 -1.2361,2.23932 -3.47542,3.47542 -2.23932,1.23611 -5.24896,1.23611 z m 0,-4.87276 q 1.09278,0 1.91685,-0.60909 0.84199,-0.6091 1.30777,-1.75563 0.46577,-1.14653 0.46577,-2.74093 0,-1.63022 -0.46577,-2.75884 -0.46578,-1.12861 -1.30777,-1.73771 -0.82407,-0.60909 -1.91685,-0.60909 -1.11071,0 -1.95269,0.60909 -0.84198,0.59118 -1.30776,1.73771 -0.44787,1.12862 -0.44787,2.75884 0,1.61231 0.44787,2.75884 0.46578,1.12862 1.30776,1.73772 0.84198,0.60909 1.95269,0.60909 z m 16.4993,4.46072 -5.82223,-19.16857 h 6.48507 l 1.46899,6.12678 q 0.48369,2.07809 0.94947,4.35324 0.48369,2.27514 0.93156,4.58612 h -0.78824 q 0.5016,-2.31098 1.03904,-4.58612 0.53744,-2.27515 1.05696,-4.35324 l 1.57648,-6.12678 h 5.48185 l 1.55857,6.12678 q 0.51952,2.07809 1.03904,4.35324 0.53744,2.27514 1.03905,4.58612 h -0.77033 q 0.44786,-2.31098 0.89573,-4.56821 0.44786,-2.27515 0.91364,-4.37115 l 1.43316,-6.12678 h 6.61047 l -5.84014,19.16857 h -6.37758 l -2.07809,-7.09416 q -0.28663,-1.03904 -0.57326,-2.18557 -0.28664,-1.14653 -0.57327,-2.32889 -0.26872,-1.18237 -0.55535,-2.27515 h 1.05696 q -0.26872,1.09278 -0.55535,2.27515 -0.28664,1.18236 -0.57327,2.32889 -0.26872,1.14653 -0.57326,2.18557 l -2.09601,7.09416 z"
         id="path7" />
    </g>
  </g>
</svg>
