<?xml version="1.0" encoding="UTF-8" standalone="no"?>
<!-- Created with Inkscape (http://www.inkscape.org/) -->

<svg
   width="175.76503mm"
   height="97.930893mm"
   viewBox="0 0 175.76503 97.930893"
   version="1.1"
   id="svg1"
   inkscape:version="1.4.1 (1:1.4.1+202503302257+93de688d07)"
   sodipodi:docname="logo_secondary.svg"
   xmlns:inkscape="http://www.inkscape.org/namespaces/inkscape"
   xmlns:sodipodi="http://sodipodi.sourceforge.net/DTD/sodipodi-0.dtd"
   xmlns="http://www.w3.org/2000/svg"
   xmlns:svg="http://www.w3.org/2000/svg">
  <sodipodi:namedview
     id="namedview1"
     pagecolor="#ffffff"
     bordercolor="#999999"
     borderopacity="1"
     inkscape:showpageshadow="0"
     inkscape:pageopacity="0"
     inkscape:pagecheckerboard="0"
     inkscape:deskcolor="#d1d1d1"
     inkscape:document-units="mm"
     inkscape:zoom="0.69308361"
     inkscape:cx="336.17878"
     inkscape:cy="230.85238"
     inkscape:window-width="1920"
     inkscape:window-height="961"
     inkscape:window-x="0"
     inkscape:window-y="0"
     inkscape:window-maximized="1"
     inkscape:current-layer="text6" />
  <defs
     id="defs1" />
  <g
     inkscape:label="Layer 1"
     inkscape:groupmode="layer"
     id="layer1"
     transform="translate(-16.059176,-87.443967)">
    <g
       id="g1">
      <path
         id="path370"
         style="fill:none;stroke:#10a994;stroke-width:3.47707;stroke-linejoin:round;stroke-dasharray:none;stroke-dashoffset:3.77953;stroke-opacity:1"
         d="m 48.24294,89.182502 a 15.083836,15.083836 0 0 0 -0.206187,0.01291 15.083836,15.083836 0 0 0 -0.202573,-0.0078 15.083836,15.083836 0 0 0 -0.772046,0.07028 15.083836,15.083836 0 0 0 -0.978233,0.08888 15.083836,15.083836 0 0 0 -0.962216,0.188618 15.083836,15.083836 0 0 0 -0.957048,0.214974 15.083836,15.083836 0 0 0 -0.926041,0.311092 15.083836,15.083836 0 0 0 -0.925008,0.338998 15.083836,15.083836 0 0 0 -0.874365,0.426847 15.083836,15.083836 0 0 0 -0.875917,0.457337 15.083836,15.083836 0 0 0 -0.814938,0.538985 15.083836,15.083836 0 0 0 -0.80305,0.563272 15.083836,15.083836 0 0 0 -0.745175,0.646472 15.083836,15.083836 0 0 0 -0.719852,0.659908 15.083836,15.083836 0 0 0 -0.648538,0.730189 15.083836,15.083836 0 0 0 -0.633037,0.752925 15.083836,15.083836 0 0 0 -0.548804,0.809252 15.083836,15.083836 0 0 0 -0.530201,0.829924 15.083836,15.083836 0 0 0 -0.435632,0.866613 15.083836,15.083836 0 0 0 -0.421163,0.898655 15.083836,15.083836 0 0 0 -0.31936,0.914673 15.083836,15.083836 0 0 0 -0.300239,0.943614 15.083836,15.083836 0 0 0 -0.199472,0.9586 15.083836,15.083836 0 0 0 -0.174149,0.96531 15.083836,15.083836 0 0 0 -0.07338,0.97617 15.083836,15.083836 0 0 0 -0.05839,0.77618 15.083836,15.083836 0 0 0 0.01138,0.20516 15.083836,15.083836 0 0 0 -0.0098,0.20412 15.083836,15.083836 0 0 0 0.06408,0.7798 15.083836,15.083836 0 0 0 0.0801,0.96945 15.083836,15.083836 0 0 0 0.180867,0.96531 15.083836,15.083836 0 0 0 0.207224,0.96118 15.083836,15.083836 0 0 0 0.301789,0.92346 15.083836,15.083836 0 0 0 0.331248,0.93018 15.083836,15.083836 0 0 0 0.422711,0.88521 15.083836,15.083836 0 0 0 0.445969,0.87178 15.083836,15.083836 0 0 0 0.532267,0.82011 15.083836,15.083836 0 0 0 0.559655,0.81235 15.083836,15.083836 0 0 0 0.63097,0.74001 15.083836,15.083836 0 0 0 0.65939,0.73226 15.083836,15.083836 0 0 0 0.731739,0.66042 15.083836,15.083836 0 0 0 0.740524,0.63355 15.083836,15.083836 0 0 0 0.812353,0.56121 15.083836,15.083836 0 0 0 0.814938,0.53072 15.083836,15.083836 0 0 0 0.882115,0.45268 15.083836,15.083836 0 0 0 0.875401,0.41961 15.083836,15.083836 0 0 0 0.929658,0.3328 15.083836,15.083836 0 0 0 0.923457,0.30334 15.083836,15.083836 0 0 0 0.966867,0.21032 15.083836,15.083836 0 0 0 0.956013,0.18035 15.083836,15.083836 0 0 0 0.982369,0.0822 15.083836,15.083836 0 0 0 0.76998,0.0646 15.083836,15.083836 0 0 0 0.204121,-0.009 15.083836,15.083836 0 0 0 0.205155,0.0114 15.083836,15.083836 0 0 0 0.782899,-0.0579 15.083836,15.083836 0 0 0 0.966349,-0.0708 15.083836,15.083836 0 0 0 0.975135,-0.17415 15.083836,15.083836 0 0 0 0.953947,-0.19741 15.083836,15.083836 0 0 0 0.930175,-0.29455 15.083836,15.083836 0 0 0 0.932243,-0.3235 15.083836,15.083836 0 0 0 0.887801,-0.41496 15.083836,15.083836 0 0 0 0.873848,-0.4377 15.083836,15.083836 0 0 0 0.828892,-0.52762 15.083836,15.083836 0 0 0 0.813903,-0.55035 15.083836,15.083836 0 0 0 0.749308,-0.62838 15.083836,15.083836 0 0 0 0.732771,-0.64854 15.083836,15.083836 0 0 0 0.668692,-0.72709 15.083836,15.083836 0 0 0 0.639755,-0.73587 15.083836,15.083836 0 0 0 0.566891,-0.80667 15.083836,15.083836 0 0 0 0.538469,-0.81029 15.083836,15.083836 0 0 0 0.45837,-0.8754 15.083836,15.083836 0 0 0 0.428913,-0.87488 15.083836,15.083836 0 0 0 0.340032,-0.92449 15.083836,15.083836 0 0 0 0.312126,-0.92501 15.083836,15.083836 0 0 0 0.216006,-0.95343 15.083836,15.083836 0 0 0 0.191204,-0.96635 15.083836,15.083836 0 0 0 0.08992,-0.97617 15.083836,15.083836 0 0 0 0.07131,-0.77308 15.083836,15.083836 0 0 0 -0.0078,-0.20308 15.083836,15.083836 0 0 0 0.01344,-0.20568 l -0.0088,-0.51624 a 15.083836,15.083836 0 0 0 -0.05168,-0.5178 15.083836,15.083836 0 0 0 -0.09715,-0.97462 15.083836,15.083836 0 0 0 -0.16433,-0.96738 15.083836,15.083836 0 0 0 -0.221175,-0.94826 15.083836,15.083836 0 0 0 -0.290939,-0.945686 15.083836,15.083836 0 0 0 -0.34313,-0.91209 A 15.083836,15.083836 0 0 0 61.72017,97.592313 15.083836,15.083836 0 0 0 61.258699,96.726215 15.083836,15.083836 0 0 0 60.73832,95.894743 15.083836,15.083836 0 0 0 60.171429,95.099959 15.083836,15.083836 0 0 0 59.546144,94.340316 15.083836,15.083836 0 0 0 58.879,93.625113 15.083836,15.083836 0 0 0 58.162765,92.955387 15.083836,15.083836 0 0 0 57.405705,92.330102 15.083836,15.083836 0 0 0 56.611955,91.761661 15.083836,15.083836 0 0 0 55.77893,91.239212 15.083836,15.083836 0 0 0 54.914901,90.776707 15.083836,15.083836 0 0 0 54.025549,90.368981 15.083836,15.083836 0 0 0 53.10726,90.022232 15.083836,15.083836 0 0 0 52.169333,89.732328 15.083836,15.083836 0 0 0 51.219519,89.509086 15.083836,15.083836 0 0 0 50.249035,89.342687 15.083836,15.083836 0 0 0 49.27752,89.244502 15.083836,15.083836 0 0 0 48.759206,89.192308 Z" />
      <path
         style="fill:none;stroke:#004fce;stroke-width:3.96875;stroke-linecap:round;stroke-linejoin:round;stroke-dashoffset:3.77953;stroke-opacity:1"
         d="m 40.308542,175.31127 -8.173395,-8.34386 z"
         id="path2"
         sodipodi:nodetypes="ccc" />
      <path
         style="fill:none;stroke:#10a994;stroke-width:3.96875;stroke-linecap:round;stroke-linejoin:round;stroke-dashoffset:3.77953;stroke-opacity:1"
         d="m 31.961665,183.40983 8.346877,-8.09856 z"
         id="path3"
         sodipodi:nodetypes="ccc" />
      <path
         id="path4"
         style="fill:none;stroke:#10a994;stroke-width:4.20164;stroke-linecap:round;stroke-linejoin:round;stroke-dashoffset:3.77953;stroke-opacity:1"
         d="M 40.155898,175.31127 H 28.579782 A 10.419784,10.419784 0 0 1 18.159996,164.89148 v -20.72735 a 16.627512,16.627512 0 0 1 16.627512,-16.62751 v 0 h 27.863741 a 15.631756,15.631756 0 0 1 15.631758,15.63176 l 2e-6,0.2372" />
      <path
         style="fill:none;stroke:#004fce;stroke-width:3.96875;stroke-linecap:round;stroke-linejoin:round;stroke-dashoffset:3.77953;stroke-opacity:1"
         d="m 78.32461,155.35364 -9.240763,-8.58613 z"
         id="path2-6"
         sodipodi:nodetypes="ccc" />
      <path
         style="fill:none;stroke:#10a994;stroke-width:3.96875;stroke-linecap:round;stroke-linejoin:round;stroke-dashoffset:3.77953;stroke-opacity:1"
         d="m 69.083847,164.47371 9.240763,-9.12007 z"
         id="path3-7"
         sodipodi:nodetypes="ccc" />
      <path
         style="fill:none;stroke:#10a994;stroke-width:3.55238;stroke-linecap:round;stroke-linejoin:round;stroke-dashoffset:3.77953;stroke-opacity:1"
         d="M 76.15328,155.35364 H 59.226591 Z"
         id="path5" />
      <rect
         style="fill:none;stroke:#10a994;stroke-width:3.3437;stroke-linecap:round;stroke-linejoin:round;stroke-dasharray:none;stroke-dashoffset:3.77953;stroke-opacity:1"
         id="rect5"
         width="20.158001"
         height="18.094007"
         x="38.013241"
         y="146.30663" />
      <g
         id="text6"
         style="font-weight:bold;font-size:36.689px;line-height:0.8;font-family:'Roboto Slab';-inkscape-font-specification:'Roboto Slab Bold';fill:#004fce;stroke-width:3.96875;stroke-linecap:round;stroke-linejoin:round;stroke-dashoffset:3.77953"
         aria-label="Test&#10;Flow">
        <path
           style="font-weight:800;font-family:'Inter 28pt';-inkscape-font-specification:'Inter 28pt Ultra-Bold';baseline-shift:baseline;fill:#10a994;fill-opacity:1"
           d="m 87.561528,130.66467 v -5.41019 h 22.214042 v 5.41019 h -7.90032 v 21.28249 h -6.413405 v -21.28249 z m 29.720242,21.69452 c -1.9706,0 -3.69637,-0.41801 -5.17731,-1.25402 -1.46899,-0.83601 -2.60955,-2.00642 -3.42168,-3.51125 -0.81213,-1.50482 -1.21819,-3.24253 -1.21819,-5.21313 0,-1.95866 0.40606,-3.68443 1.21819,-5.17731 0.81213,-1.50482 1.94074,-2.68121 3.38585,-3.52916 1.45705,-0.8599 3.13505,-1.28985 5.03399,-1.28985 1.42122,0 2.71704,0.23886 3.88746,0.71658 1.17042,0.46578 2.17961,1.13459 3.02756,2.00643 0.8599,0.8599 1.52274,1.89297 1.98851,3.09922 0.47773,1.20625 0.71659,2.54984 0.71659,4.03077 v 1.64814 h -17.21589 v -3.67248 h 14.29581 l -2.8305,0.77032 c 0,-0.83601 -0.14929,-1.55259 -0.44786,-2.14974 -0.29857,-0.60909 -0.72852,-1.07487 -1.28985,-1.39734 -0.54938,-0.3344 -1.21819,-0.5016 -2.00643,-0.5016 -0.77629,0 -1.4451,0.1672 -2.00643,0.5016 -0.54938,0.32247 -0.97336,0.78227 -1.27193,1.37942 -0.29857,0.59715 -0.44786,1.31374 -0.44786,2.14975 v 2.68718 c 0,0.88379 0.15526,1.64814 0.46578,2.29306 0.32246,0.63299 0.78227,1.11668 1.37942,1.45108 0.59715,0.33441 1.30776,0.50161 2.13183,0.50161 0.59715,0 1.12861,-0.0836 1.59439,-0.2508 0.47772,-0.16721 0.87781,-0.4001 1.20028,-0.69867 0.32246,-0.31052 0.56132,-0.67478 0.71658,-1.09279 l 5.55351,0.19706 c -0.25081,1.24207 -0.80616,2.34083 -1.66605,3.29628 -0.8599,0.9435 -1.94075,1.68397 -3.24254,2.2214 -1.30179,0.52549 -2.75286,0.78824 -4.35323,0.78824 z m 20.54798,0.0358 c -1.74368,0 -3.2903,-0.25677 -4.63986,-0.77032 -1.33762,-0.52549 -2.41249,-1.26596 -3.22462,-2.22141 -0.80019,-0.96739 -1.27194,-2.11392 -1.41525,-3.43959 l 6.01929,-0.19706 c 0.13137,0.72853 0.46578,1.30179 1.00321,1.7198 0.54938,0.41801 1.28985,0.62701 2.2214,0.62701 0.8599,0 1.52871,-0.14929 2.00643,-0.44787 0.48967,-0.29857 0.7345,-0.69269 0.7345,-1.18236 0,-0.41801 -0.19706,-0.75838 -0.59118,-1.02113 -0.39412,-0.26275 -0.97336,-0.46578 -1.73771,-0.60909 l -3.43959,-0.62701 c -1.89895,-0.34635 -3.33808,-0.99127 -4.31741,-1.93477 -0.96739,-0.9435 -1.45108,-2.16766 -1.45108,-3.67249 0,-1.26596 0.34038,-2.35875 1.02113,-3.27836 0.69269,-0.93155 1.67799,-1.64814 2.9559,-2.14975 1.27791,-0.51355 2.80064,-0.77032 4.56821,-0.77032 1.75563,0 3.27239,0.25677 4.5503,0.77032 1.2779,0.51355 2.28111,1.24208 3.00964,2.18558 0.72853,0.93155 1.12862,2.04823 1.20028,3.35002 l -5.64309,0.19706 c -0.0478,-0.65687 -0.3404,-1.1943 -0.87781,-1.61231 -0.53743,-0.42995 -1.21819,-0.64492 -2.04226,-0.64492 -0.78824,0 -1.41525,0.15526 -1.88103,0.46578 -0.46577,0.31051 -0.69866,0.69866 -0.69866,1.16444 0,0.40607 0.17317,0.74644 0.51952,1.02113 0.35829,0.26275 0.88378,0.46578 1.57648,0.6091 l 3.79788,0.68075 c 1.9706,0.37023 3.42168,0.97933 4.35324,1.82728 0.93155,0.84796 1.39733,1.97658 1.39733,3.38585 0,1.31373 -0.3762,2.46624 -1.12861,3.45751 -0.75241,0.97933 -1.80937,1.74368 -3.17088,2.29306 -1.34956,0.54938 -2.90813,0.82407 -4.6757,0.82407 z m 23.61138,-19.61643 v 4.74736 h -13.11345 v -4.74736 z m -10.01423,-5.06982 h 6.19843 v 17.93247 c 0,0.58521 0.11943,0.99724 0.35829,1.2361 0.25081,0.22692 0.70464,0.34038 1.36151,0.34038 h 1.09279 c 0.44189,-0.0119 0.75838,-0.0239 0.94947,-0.0358 l 0.17914,4.71153 c -0.40606,0.0478 -0.93752,0.0777 -1.59439,0.0896 -0.65687,0.0239 -1.31971,0.0358 -1.98852,0.0358 -2.23335,0 -3.88746,-0.44189 -4.96233,-1.32568 -1.06293,-0.89573 -1.59439,-2.26918 -1.59439,-4.12035 z"
           id="path1"
           sodipodi:nodetypes="cccccccccscssccscccscccccccscssscssccccccsscccccscsscccsccssccccssscccssccscccccccscsccccscsc" />
        <path
           style="font-weight:800;font-family:'Inter 28pt';-inkscape-font-specification:'Inter 28pt Ultra-Bold';baseline-shift:baseline;fill:#10a994;fill-opacity:1"
           d="M 88.510999,181.52308 V 154.8304 h 19.007341 v 5.4102 H 94.924408 v 5.92971 h 11.716112 v 5.23105 H 94.924408 v 10.12172 z M 116.38604,154.8304 v 13.34634 13.34634 h -6.19843 V 154.8304 Z m 12.79099,27.10472 c -2.00643,0 -3.76206,-0.41204 -5.26688,-1.23611 -1.49288,-0.82407 -2.65135,-1.98254 -3.47542,-3.47542 -0.82407,-1.49288 -1.23611,-3.24851 -1.23611,-5.26688 0,-2.00643 0.41204,-3.75608 1.23611,-5.24896 0.82407,-1.49288 1.98254,-2.65733 3.47542,-3.49334 1.50482,-0.83601 3.26045,-1.25402 5.26688,-1.25402 2.00643,0 3.75608,0.41801 5.24896,1.25402 1.49288,0.83601 2.65135,2.00046 3.47542,3.49334 0.82407,1.49288 1.23611,3.24253 1.23611,5.24896 0,2.01837 -0.41204,3.774 -1.23611,5.26688 -0.82407,1.49288 -1.98254,2.65135 -3.47542,3.47542 -1.49288,0.82407 -3.24253,1.23611 -5.24896,1.23611 z m 0,-4.87276 c 0.72853,0 1.36748,-0.20303 1.91685,-0.60909 0.56133,-0.40607 0.99725,-0.99128 1.30777,-1.75563 0.31052,-0.76435 0.46578,-1.678 0.46578,-2.74093 0,-1.08681 -0.15526,-2.00643 -0.46578,-2.75884 -0.31052,-0.75241 -0.74644,-1.33164 -1.30777,-1.73771 -0.54937,-0.40606 -1.18832,-0.60909 -1.91685,-0.60909 -0.74047,0 -1.39136,0.20303 -1.95269,0.60909 -0.56132,0.39412 -0.99724,0.97336 -1.30776,1.73771 -0.29857,0.75241 -0.44786,1.67203 -0.44786,2.75884 0,1.07487 0.14929,1.99449 0.44786,2.75884 0.31052,0.75241 0.74644,1.33165 1.30776,1.73772 0.56133,0.40606 1.21222,0.60909 1.95269,0.60909 z m 16.4993,4.46072 -5.82223,-19.16857 h 6.48507 l 1.46899,6.12678 c 0.32246,1.38539 0.63895,2.83647 0.94947,4.35324 0.32246,1.51676 0.63298,3.04547 0.93156,4.58612 h -0.78824 c 0.33441,-1.54065 0.68075,-3.06936 1.03904,-4.58612 0.35829,-1.51677 0.71061,-2.96785 1.05696,-4.35324 l 1.57648,-6.12678 h 5.48185 l 1.55857,6.12678 c 0.34635,1.38539 0.69269,2.83647 1.03904,4.35324 0.35829,1.51676 0.70464,3.04547 1.03905,4.58612 h -0.77033 c 0.29858,-1.54065 0.59716,-3.06339 0.89573,-4.56821 0.29857,-1.51677 0.60312,-2.97382 0.91364,-4.37115 l 1.43317,-6.12678 h 6.61046 l -2.92007,9.58428 -2.92007,9.58429 h -6.37758 l -2.07809,-7.09416 c -0.19109,-0.69269 -0.38217,-1.42122 -0.57326,-2.18557 -0.19109,-0.76435 -0.38218,-1.54065 -0.57327,-2.3289 -0.17915,-0.78824 -0.36426,-1.54662 -0.55535,-2.27514 h 1.05696 c -0.17915,0.72852 -0.36426,1.4869 -0.55535,2.27514 -0.19109,0.78825 -0.38218,1.56455 -0.57327,2.3289 -0.17915,0.76435 -0.37023,1.49288 -0.57326,2.18557 l -2.09601,7.09416 z"
           id="path6"
           sodipodi:nodetypes="cccccccccccccccccscssscsssssssscssscsccscsscccccccscccccccccccccccscccscccc" />
      </g>
    </g>
  </g>
</svg>
