<?xml version="1.0" encoding="UTF-8" standalone="no"?>
<!-- Created with Inkscape (http://www.inkscape.org/) -->

<svg
   width="67.992874mm"
   height="43.037777mm"
   viewBox="0 0 67.992874 43.037777"
   version="1.1"
   id="svg1"
   inkscape:version="1.4.1-rc (06eac75fbf, 2025-03-29)"
   sodipodi:docname="logo-white-small-login.svg"
   xmlns:inkscape="http://www.inkscape.org/namespaces/inkscape"
   xmlns:sodipodi="http://sodipodi.sourceforge.net/DTD/sodipodi-0.dtd"
   xmlns="http://www.w3.org/2000/svg"
   xmlns:svg="http://www.w3.org/2000/svg">
  <sodipodi:namedview
     id="namedview1"
     pagecolor="#ffffff"
     bordercolor="#999999"
     borderopacity="1"
     inkscape:showpageshadow="0"
     inkscape:pageopacity="0"
     inkscape:pagecheckerboard="0"
     inkscape:deskcolor="#d1d1d1"
     inkscape:document-units="mm"
     inkscape:zoom="3.920673"
     inkscape:cx="106.86941"
     inkscape:cy="65.167384"
     inkscape:window-width="1920"
     inkscape:window-height="1085"
     inkscape:window-x="1920"
     inkscape:window-y="32"
     inkscape:window-maximized="1"
     inkscape:current-layer="layer1" />
  <defs
     id="defs1" />
  <g
     inkscape:label="Layer 1"
     inkscape:groupmode="layer"
     id="layer1"
     transform="translate(-69.524578,-100.27709)">
    <path
       id="path370"
       style="fill:none;stroke:#ffffff;stroke-width:1.52807;stroke-linejoin:round;stroke-dasharray:none;stroke-dashoffset:3.77953;stroke-opacity:1"
       d="m 83.668392,101.04112 a 6.6289038,6.6289038 0 0 0 -0.0906,0.006 6.6289038,6.6289038 0 0 0 -0.089,-0.004 6.6289038,6.6289038 0 0 0 -0.33929,0.0309 6.6289038,6.6289038 0 0 0 -0.42991,0.0391 6.6289038,6.6289038 0 0 0 -0.42286,0.0829 6.6289038,6.6289038 0 0 0 -0.4206,0.0945 6.6289038,6.6289038 0 0 0 -0.40696,0.13672 6.6289038,6.6289038 0 0 0 -0.40652,0.14897 6.6289038,6.6289038 0 0 0 -0.38426,0.18759 6.6289038,6.6289038 0 0 0 -0.38493,0.20099 6.6289038,6.6289038 0 0 0 -0.35815,0.23687 6.6289038,6.6289038 0 0 0 -0.35291,0.24754 6.6289038,6.6289038 0 0 0 -0.32749,0.28411 6.6289038,6.6289038 0 0 0 -0.31635,0.29 6.6289038,6.6289038 0 0 0 -0.285007,0.3209 6.6289038,6.6289038 0 0 0 -0.2782,0.33089 6.6289038,6.6289038 0 0 0 -0.24119,0.35564 6.6289038,6.6289038 0 0 0 -0.233,0.36473 6.6289038,6.6289038 0 0 0 -0.19145,0.38085 6.6289038,6.6289038 0 0 0 -0.18509,0.39493 6.6289038,6.6289038 0 0 0 -0.14035,0.40198 6.6289038,6.6289038 0 0 0 -0.13194,0.41469 6.6289038,6.6289038 0 0 0 -0.0877,0.42128 6.6289038,6.6289038 0 0 0 -0.0765,0.42422 6.6289038,6.6289038 0 0 0 -0.0323,0.429 6.6289038,6.6289038 0 0 0 -0.0257,0.34111 6.6289038,6.6289038 0 0 0 0.005,0.0902 6.6289038,6.6289038 0 0 0 -0.004,0.0897 6.6289038,6.6289038 0 0 0 0.0282,0.3427 6.6289038,6.6289038 0 0 0 0.0352,0.42604 6.6289038,6.6289038 0 0 0 0.0795,0.42423 6.6289038,6.6289038 0 0 0 0.0911,0.42241 6.6289038,6.6289038 0 0 0 0.13263,0.40583 6.6289038,6.6289038 0 0 0 0.14557,0.40879 6.6289038,6.6289038 0 0 0 0.18577,0.38902 6.6289038,6.6289038 0 0 0 0.19599,0.38313 6.6289038,6.6289038 0 0 0 0.23391,0.36041 6.6289038,6.6289038 0 0 0 0.24596,0.35701 6.6289038,6.6289038 0 0 0 0.27729,0.32521 6.6289038,6.6289038 0 0 0 0.289777,0.3218 6.6289038,6.6289038 0 0 0 0.32158,0.29024 6.6289038,6.6289038 0 0 0 0.32544,0.27843 6.6289038,6.6289038 0 0 0 0.357,0.24663 6.6289038,6.6289038 0 0 0 0.35814,0.23324 6.6289038,6.6289038 0 0 0 0.38766,0.19894 6.6289038,6.6289038 0 0 0 0.38472,0.1844 6.6289038,6.6289038 0 0 0 0.40856,0.14626 6.6289038,6.6289038 0 0 0 0.40583,0.13331 6.6289038,6.6289038 0 0 0 0.42491,0.0924 6.6289038,6.6289038 0 0 0 0.42014,0.0793 6.6289038,6.6289038 0 0 0 0.43172,0.0361 6.6289038,6.6289038 0 0 0 0.33838,0.0284 6.6289038,6.6289038 0 0 0 0.0897,-0.004 6.6289038,6.6289038 0 0 0 0.0902,0.005 6.6289038,6.6289038 0 0 0 0.34406,-0.0255 6.6289038,6.6289038 0 0 0 0.424677,-0.0311 6.6289038,6.6289038 0 0 0 0.42854,-0.0765 6.6289038,6.6289038 0 0 0 0.41924,-0.0868 6.6289038,6.6289038 0 0 0 0.40878,-0.12945 6.6289038,6.6289038 0 0 0 0.40969,-0.14217 6.6289038,6.6289038 0 0 0 0.39016,-0.18236 6.6289038,6.6289038 0 0 0 0.38403,-0.19236 6.6289038,6.6289038 0 0 0 0.36428,-0.23187 6.6289038,6.6289038 0 0 0 0.35769,-0.24186 6.6289038,6.6289038 0 0 0 0.3293,-0.27616 6.6289038,6.6289038 0 0 0 0.32203,-0.28501 6.6289038,6.6289038 0 0 0 0.29387,-0.31953 6.6289038,6.6289038 0 0 0 0.28115,-0.3234 6.6289038,6.6289038 0 0 0 0.24913,-0.35451 6.6289038,6.6289038 0 0 0 0.23664,-0.35609 6.6289038,6.6289038 0 0 0 0.201437,-0.38472 6.6289038,6.6289038 0 0 0 0.1885,-0.38448 6.6289038,6.6289038 0 0 0 0.14943,-0.40629 6.6289038,6.6289038 0 0 0 0.13717,-0.40652 6.6289038,6.6289038 0 0 0 0.0949,-0.419 6.6289038,6.6289038 0 0 0 0.084,-0.42468 6.6289038,6.6289038 0 0 0 0.0395,-0.429 6.6289038,6.6289038 0 0 0 0.0313,-0.33975 6.6289038,6.6289038 0 0 0 -0.004,-0.0892 6.6289038,6.6289038 0 0 0 0.006,-0.0904 l -0.004,-0.22687 a 6.6289038,6.6289038 0 0 0 -0.0227,-0.22756 6.6289038,6.6289038 0 0 0 -0.0427,-0.42831 6.6289038,6.6289038 0 0 0 -0.0722,-0.42514 6.6289038,6.6289038 0 0 0 -0.0972,-0.41673 6.6289038,6.6289038 0 0 0 -0.12786,-0.4156 6.6289038,6.6289038 0 0 0 -0.1508,-0.40084 6.6289038,6.6289038 0 0 0 -0.17917,-0.39211 6.6289038,6.6289038 0 0 0 -0.202797,-0.38062 6.6289038,6.6289038 0 0 0 -0.22869,-0.36541 6.6289038,6.6289038 0 0 0 -0.24913,-0.34928 6.6289038,6.6289038 0 0 0 -0.2748,-0.33384 6.6289038,6.6289038 0 0 0 -0.29319,-0.31432 6.6289038,6.6289038 0 0 0 -0.31476,-0.29432 6.6289038,6.6289038 0 0 0 -0.33271,-0.2748 6.6289038,6.6289038 0 0 0 -0.34883,-0.24981 6.6289038,6.6289038 0 0 0 -0.36609,-0.2296 6.6289038,6.6289038 0 0 0 -0.37971,-0.20326 6.6289038,6.6289038 0 0 0 -0.39084,-0.17918 6.6289038,6.6289038 0 0 0 -0.40356,-0.15239 6.6289038,6.6289038 0 0 0 -0.4122,-0.1274 6.6289038,6.6289038 0 0 0 -0.41741,-0.0981 6.6289038,6.6289038 0 0 0 -0.4265,-0.0731 6.6289038,6.6289038 0 0 0 -0.426947,-0.0432 6.6289038,6.6289038 0 0 0 -0.22778,-0.0229 z" />
    <path
       style="fill:none;stroke:#ffffff;stroke-width:1.74415;stroke-linecap:round;stroke-linejoin:round;stroke-dashoffset:3.77953;stroke-opacity:1"
       d="m 80.181452,138.89221 -3.591957,-3.66689 z"
       id="path2"
       sodipodi:nodetypes="ccc" />
    <path
       style="fill:none;stroke:#ffffff;stroke-width:1.74415;stroke-linecap:round;stroke-linejoin:round;stroke-dashoffset:3.77953;stroke-opacity:1"
       d="m 76.513255,142.45129 3.668197,-3.55908 z"
       id="path3"
       sodipodi:nodetypes="ccc" />
    <path
       id="path4"
       style="fill:none;stroke:#ffffff;stroke-width:1.8465;stroke-linecap:round;stroke-linejoin:round;stroke-dashoffset:3.77953;stroke-opacity:1"
       d="m 80.114372,138.89221 h -5.087357 a 4.5791897,4.5791897 0 0 1 -4.579187,-4.5792 v -9.10907 a 7.3073042,7.3073042 0 0 1 7.307297,-7.30731 v 0 h 12.245281 a 6.8696986,6.8696986 0 0 1 6.869697,6.86971 v 0.10424" />
    <path
       style="fill:none;stroke:#ffffff;stroke-width:1.74415;stroke-linecap:round;stroke-linejoin:round;stroke-dashoffset:3.77953;stroke-opacity:1"
       d="m 96.888383,130.12141 -4.061037,-3.77336 z"
       id="path2-6"
       sodipodi:nodetypes="ccc" />
    <path
       style="fill:none;stroke:#ffffff;stroke-width:1.74415;stroke-linecap:round;stroke-linejoin:round;stroke-dashoffset:3.77953;stroke-opacity:1"
       d="m 92.827346,134.12941 4.061037,-4.008 z"
       id="path3-7"
       sodipodi:nodetypes="ccc" />
    <path
       style="fill:none;stroke:#ffffff;stroke-width:1.56117;stroke-linecap:round;stroke-linejoin:round;stroke-dashoffset:3.77953;stroke-opacity:1"
       d="M 95.934143,130.12141 H 88.495379 Z"
       id="path5" />
    <rect
       style="fill:none;stroke:#ffffff;stroke-width:1.46946;stroke-linecap:round;stroke-linejoin:round;stroke-dasharray:none;stroke-dashoffset:3.77953;stroke-opacity:1"
       id="rect5"
       width="8.8588505"
       height="7.951786"
       x="79.172791"
       y="126.14546" />
    <path
       style="font-weight:800;font-size:36.689px;line-height:0.8;font-family:'Inter 28pt';-inkscape-font-specification:'Inter 28pt Ultra-Bold';baseline-shift:baseline;fill:#ffffff;stroke-width:1.74415;stroke-linecap:round;stroke-linejoin:round;stroke-dashoffset:3.77953"
       d="m 100.94774,119.27131 v -2.37763 h 9.76242 v 2.37763 h -3.47196 v 9.35303 h -2.81851 v -9.35303 z m 13.06117,9.53411 q -1.29903,0 -2.27527,-0.55111 -0.96837,-0.5511 -1.50373,-1.54309 -0.53536,-0.99199 -0.53536,-2.29102 0,-1.29116 0.53536,-2.27527 0.53536,-0.99199 1.48798,-1.55097 0.9605,-0.56685 2.21229,-0.56685 0.93688,0 1.70842,0.31492 0.77155,0.30704 1.33053,0.88177 0.56685,0.56684 0.87389,1.36201 0.31492,0.79516 0.31492,1.77141 v 0.72431 h -7.56587 v -1.61396 h 6.28258 l -1.24392,0.33854 q 0,-0.5511 -0.19682,-0.94475 -0.19682,-0.40152 -0.56685,-0.61409 -0.36215,-0.22044 -0.88177,-0.22044 -0.51174,0 -0.88176,0.22044 -0.36216,0.21257 -0.55898,0.60622 -0.19683,0.39365 -0.19683,0.94475 v 1.18094 q 0,0.58259 0.2047,1.00773 0.21257,0.41727 0.60622,0.63771 0.39364,0.22044 0.93687,0.22044 0.39365,0 0.70069,-0.11022 0.31492,-0.11022 0.52749,-0.30705 0.21257,-0.20469 0.31491,-0.48024 l 2.44061,0.0866 q -0.16533,0.81878 -0.73218,1.44861 -0.56685,0.62197 -1.425,0.97625 -0.85815,0.34641 -1.91312,0.34641 z m 9.03024,0.0157 q -1.14944,0 -2.03909,-0.33854 -0.88176,-0.34641 -1.41712,-0.97624 -0.52749,-0.6377 -0.62196,-1.5116 l 2.6453,-0.0866 q 0.0866,0.48024 0.44088,0.7558 0.36216,0.27555 0.97624,0.27555 0.56685,0 0.88177,-0.19682 0.32279,-0.19682 0.32279,-0.51961 0,-0.27556 -0.2598,-0.44876 -0.25981,-0.1732 -0.76368,-0.26768 l -1.5116,-0.27555 q -1.25179,-0.22832 -1.89738,-0.85028 -0.6377,-0.62196 -0.6377,-1.61395 0,-0.83453 0.44876,-1.44074 0.45663,-0.61409 1.29903,-0.94476 0.8424,-0.33853 2.00759,-0.33853 1.15732,0 1.99972,0.33853 0.84241,0.33854 1.32266,0.96051 0.48024,0.61408 0.52748,1.47223 l -2.47997,0.0866 q -0.0315,-0.43301 -0.38577,-0.70856 -0.35428,-0.28343 -0.89751,-0.28343 -0.51962,0 -0.82666,0.2047 -0.30705,0.20469 -0.30705,0.51174 0,0.26768 0.22832,0.44876 0.23619,0.1732 0.69281,0.26767 l 1.66907,0.29917 q 1.29903,0.24407 1.91311,0.80304 0.61409,0.55898 0.61409,1.48799 0,0.86602 -0.49599,1.51947 -0.49599,0.64558 -1.39351,1.00774 -0.88964,0.36215 -2.05483,0.36215 z m 10.37651,-8.62082 v 2.08632 h -5.76298 v -2.08632 z m -4.40097,-2.22804 h 2.72404 v 7.88079 q 0,0.38578 0.15745,0.54324 0.16533,0.14958 0.59835,0.14958 0.18894,0 0.48024,0 0.2913,-0.008 0.41727,-0.0157 l 0.0787,2.07058 q -0.26768,0.0315 -0.70069,0.0394 -0.43301,0.0157 -0.8739,0.0157 -1.47223,0 -2.18079,-0.58259 -0.7007,-0.59047 -0.7007,-1.81078 z"
       id="path1" />
    <path
       style="font-weight:800;font-size:36.689px;line-height:0.8;font-family:'Inter 28pt';-inkscape-font-specification:'Inter 28pt Ultra-Bold';baseline-shift:baseline;fill:#ffffff;stroke-width:1.74415;stroke-linecap:round;stroke-linejoin:round;stroke-dashoffset:3.77953"
       d="m 101.365,141.6221 v -11.73066 h 8.35317 v 2.37763 h -5.53466 v 2.60594 h 5.14889 v 2.29889 h -5.14889 v 4.4482 z m 12.25027,-11.73066 v 11.73066 h -2.72404 v -11.73066 z m 5.62126,11.91174 q -1.32265,0 -2.31464,-0.54323 -0.98411,-0.54323 -1.52735,-1.52735 -0.54323,-0.98411 -0.54323,-2.31464 0,-1.32265 0.54323,-2.30677 0.54324,-0.98411 1.52735,-1.53522 0.99199,-0.5511 2.31464,-0.5511 1.32265,0 2.30677,0.5511 0.98411,0.55111 1.52734,1.53522 0.54323,0.98412 0.54323,2.30677 0,1.33053 -0.54323,2.31464 -0.54323,0.98412 -1.52734,1.52735 -0.98412,0.54323 -2.30677,0.54323 z m 0,-2.14143 q 0.48025,0 0.8424,-0.26769 0.37003,-0.26767 0.57472,-0.77154 0.2047,-0.50387 0.2047,-1.20456 0,-0.71644 -0.2047,-1.21243 -0.20469,-0.496 -0.57472,-0.76367 -0.36215,-0.26769 -0.8424,-0.26769 -0.48812,0 -0.85815,0.26769 -0.37003,0.2598 -0.57472,0.76367 -0.19683,0.49599 -0.19683,1.21243 0,0.70856 0.19683,1.21243 0.20469,0.496 0.57472,0.76367 0.37003,0.26769 0.85815,0.26769 z m 7.25096,1.96035 -2.5587,-8.42403 h 2.85 l 0.64558,2.69254 q 0.21257,0.91326 0.41726,1.91312 0.21257,0.99987 0.40939,2.01547 h -0.34641 q 0.22045,-1.0156 0.45664,-2.01547 0.23618,-0.99986 0.4645,-1.91312 l 0.69281,-2.69254 h 2.40912 l 0.68494,2.69254 q 0.22832,0.91326 0.45663,1.91312 0.23619,0.99987 0.45663,2.01547 h -0.33853 q 0.19682,-1.0156 0.39364,-2.00759 0.19682,-0.99987 0.40152,-1.921 l 0.62983,-2.69254 h 2.90511 l -2.56657,8.42403 h -2.80276 l -0.91326,-3.11767 q -0.12596,-0.45664 -0.25193,-0.9605 -0.12597,-0.50387 -0.25194,-1.02349 -0.11809,-0.51961 -0.24406,-0.99986 h 0.46451 q -0.1181,0.48025 -0.24407,0.99986 -0.12596,0.51962 -0.25193,1.02349 -0.11809,0.50386 -0.25193,0.9605 l -0.92113,3.11767 z"
       id="path6" />
  </g>
</svg>
