<?xml version="1.0" encoding="UTF-8" standalone="no"?>
<!-- Created with Inkscape (http://www.inkscape.org/) -->

<svg
   width="64.324654mm"
   height="97.390045mm"
   viewBox="0 0 64.324654 97.390045"
   version="1.1"
   id="svg1"
   inkscape:version="1.4.1-rc (06eac75fbf, 2025-03-29)"
   sodipodi:docname="favicon.svg"
   xmlns:inkscape="http://www.inkscape.org/namespaces/inkscape"
   xmlns:sodipodi="http://sodipodi.sourceforge.net/DTD/sodipodi-0.dtd"
   xmlns="http://www.w3.org/2000/svg"
   xmlns:svg="http://www.w3.org/2000/svg">
  <sodipodi:namedview
     id="namedview1"
     pagecolor="#ffffff"
     bordercolor="#999999"
     borderopacity="1"
     inkscape:showpageshadow="2"
     inkscape:pageopacity="0"
     inkscape:pagecheckerboard="0"
     inkscape:deskcolor="#d1d1d1"
     inkscape:document-units="mm"
     inkscape:zoom="0.74386223"
     inkscape:cx="120.99015"
     inkscape:cy="184.84606"
     inkscape:window-width="1920"
     inkscape:window-height="1085"
     inkscape:window-x="1920"
     inkscape:window-y="32"
     inkscape:window-maximized="1"
     inkscape:current-layer="layer1" />
  <defs
     id="defs1" />
  <g
     inkscape:label="Layer 1"
     inkscape:groupmode="layer"
     id="layer1"
     transform="translate(-72.760417,-99.483335)">
    <path
       id="path370"
       style="fill:none;stroke:#004fce;stroke-width:3.47707;stroke-linejoin:round;stroke-dasharray:none;stroke-dashoffset:3.77953;stroke-opacity:1"
       d="m 104.94418,101.22187 a 15.083836,15.083836 0 0 0 -0.20619,0.0129 15.083836,15.083836 0 0 0 -0.20257,-0.008 15.083836,15.083836 0 0 0 -0.77205,0.0703 15.083836,15.083836 0 0 0 -0.97823,0.0889 15.083836,15.083836 0 0 0 -0.96221,0.18861 15.083836,15.083836 0 0 0 -0.95705,0.21498 15.083836,15.083836 0 0 0 -0.926043,0.31109 15.083836,15.083836 0 0 0 -0.925008,0.339 15.083836,15.083836 0 0 0 -0.874365,0.42685 15.083836,15.083836 0 0 0 -0.875917,0.45733 15.083836,15.083836 0 0 0 -0.814938,0.53899 15.083836,15.083836 0 0 0 -0.80305,0.56327 15.083836,15.083836 0 0 0 -0.745175,0.64647 15.083836,15.083836 0 0 0 -0.719852,0.65991 15.083836,15.083836 0 0 0 -0.648538,0.73019 15.083836,15.083836 0 0 0 -0.633037,0.75292 15.083836,15.083836 0 0 0 -0.548804,0.80926 15.083836,15.083836 0 0 0 -0.530201,0.82992 15.083836,15.083836 0 0 0 -0.435632,0.86661 15.083836,15.083836 0 0 0 -0.421163,0.89866 15.083836,15.083836 0 0 0 -0.31936,0.91467 15.083836,15.083836 0 0 0 -0.300239,0.94361 15.083836,15.083836 0 0 0 -0.199472,0.9586 15.083836,15.083836 0 0 0 -0.174149,0.96531 15.083836,15.083836 0 0 0 -0.07338,0.97617 15.083836,15.083836 0 0 0 -0.05839,0.77618 15.083836,15.083836 0 0 0 0.01138,0.20516 15.083836,15.083836 0 0 0 -0.0098,0.20412 15.083836,15.083836 0 0 0 0.06408,0.7798 15.083836,15.083836 0 0 0 0.0801,0.96945 15.083836,15.083836 0 0 0 0.180867,0.96531 15.083836,15.083836 0 0 0 0.207224,0.96118 15.083836,15.083836 0 0 0 0.301789,0.92346 15.083836,15.083836 0 0 0 0.331248,0.93018 15.083836,15.083836 0 0 0 0.422711,0.88521 15.083836,15.083836 0 0 0 0.445969,0.87178 15.083836,15.083836 0 0 0 0.532267,0.82011 15.083836,15.083836 0 0 0 0.559655,0.81235 15.083836,15.083836 0 0 0 0.63097,0.74001 15.083836,15.083836 0 0 0 0.65939,0.73226 15.083836,15.083836 0 0 0 0.731739,0.66042 15.083836,15.083836 0 0 0 0.740524,0.63355 15.083836,15.083836 0 0 0 0.812353,0.56121 15.083836,15.083836 0 0 0 0.814938,0.53072 15.083836,15.083836 0 0 0 0.882115,0.45268 15.083836,15.083836 0 0 0 0.875401,0.41961 15.083836,15.083836 0 0 0 0.929653,0.3328 15.083836,15.083836 0 0 0 0.92346,0.30334 15.083836,15.083836 0 0 0 0.96687,0.21032 15.083836,15.083836 0 0 0 0.95601,0.18035 15.083836,15.083836 0 0 0 0.98237,0.0822 15.083836,15.083836 0 0 0 0.76998,0.0646 15.083836,15.083836 0 0 0 0.20412,-0.009 15.083836,15.083836 0 0 0 0.20516,0.0114 15.083836,15.083836 0 0 0 0.7829,-0.0579 15.083836,15.083836 0 0 0 0.96634,-0.0708 15.083836,15.083836 0 0 0 0.97514,-0.17415 15.083836,15.083836 0 0 0 0.95395,-0.19741 15.083836,15.083836 0 0 0 0.93017,-0.29455 15.083836,15.083836 0 0 0 0.93224,-0.3235 15.083836,15.083836 0 0 0 0.88781,-0.41496 15.083836,15.083836 0 0 0 0.87384,-0.4377 15.083836,15.083836 0 0 0 0.8289,-0.52762 15.083836,15.083836 0 0 0 0.8139,-0.55035 15.083836,15.083836 0 0 0 0.74931,-0.62838 15.083836,15.083836 0 0 0 0.73277,-0.64854 15.083836,15.083836 0 0 0 0.66869,-0.72709 15.083836,15.083836 0 0 0 0.63975,-0.73587 15.083836,15.083836 0 0 0 0.5669,-0.80667 15.083836,15.083836 0 0 0 0.53846,-0.81029 15.083836,15.083836 0 0 0 0.45837,-0.8754 15.083836,15.083836 0 0 0 0.42892,-0.87488 15.083836,15.083836 0 0 0 0.34003,-0.92449 15.083836,15.083836 0 0 0 0.31213,-0.92501 15.083836,15.083836 0 0 0 0.216,-0.95343 15.083836,15.083836 0 0 0 0.19121,-0.96635 15.083836,15.083836 0 0 0 0.0899,-0.97617 15.083836,15.083836 0 0 0 0.0713,-0.77308 15.083836,15.083836 0 0 0 -0.008,-0.20308 15.083836,15.083836 0 0 0 0.0134,-0.20568 l -0.009,-0.51624 a 15.083836,15.083836 0 0 0 -0.0517,-0.5178 15.083836,15.083836 0 0 0 -0.0971,-0.97462 15.083836,15.083836 0 0 0 -0.16433,-0.96738 15.083836,15.083836 0 0 0 -0.22118,-0.94826 15.083836,15.083836 0 0 0 -0.29094,-0.94568 15.083836,15.083836 0 0 0 -0.34313,-0.91209 15.083836,15.083836 0 0 0 -0.40769,-0.89222 15.083836,15.083836 0 0 0 -0.46147,-0.8661 15.083836,15.083836 0 0 0 -0.52038,-0.83147 15.083836,15.083836 0 0 0 -0.56689,-0.79479 15.083836,15.083836 0 0 0 -0.62528,-0.75964 15.083836,15.083836 0 0 0 -0.66715,-0.7152 15.083836,15.083836 0 0 0 -0.71623,-0.66973 15.083836,15.083836 0 0 0 -0.75706,-0.62528 15.083836,15.083836 0 0 0 -0.79375,-0.56844 15.083836,15.083836 0 0 0 -0.83303,-0.52245 15.083836,15.083836 0 0 0 -0.86403,-0.46251 15.083836,15.083836 0 0 0 -0.88935,-0.40772 15.083836,15.083836 0 0 0 -0.91829,-0.34675 15.083836,15.083836 0 0 0 -0.93793,-0.28991 15.083836,15.083836 0 0 0 -0.94981,-0.22324 15.083836,15.083836 0 0 0 -0.97048,-0.1664 15.083836,15.083836 0 0 0 -0.97152,-0.0982 15.083836,15.083836 0 0 0 -0.51831,-0.0522 z" />
    <path
       style="fill:none;stroke:#004fce;stroke-width:3.96875;stroke-linecap:round;stroke-linejoin:round;stroke-dashoffset:3.77953;stroke-opacity:1"
       d="m 97.009783,187.35063 -8.173395,-8.34386 z"
       id="path2"
       sodipodi:nodetypes="ccc" />
    <path
       style="fill:none;stroke:#004fce;stroke-width:3.96875;stroke-linecap:round;stroke-linejoin:round;stroke-dashoffset:3.77953;stroke-opacity:1"
       d="m 88.662906,195.44919 8.346877,-8.09856 z"
       id="path3"
       sodipodi:nodetypes="ccc" />
    <path
       id="path4"
       style="fill:none;stroke:#004fce;stroke-width:4.20164;stroke-linecap:round;stroke-linejoin:round;stroke-dashoffset:3.77953;stroke-opacity:1"
       d="M 96.857139,187.35063 H 85.281023 A 10.419784,10.419784 0 0 1 74.861237,176.93084 v -20.72735 a 16.627512,16.627512 0 0 1 16.627512,-16.62751 v 0 h 27.863741 a 15.631756,15.631756 0 0 1 15.63176,15.63176 v 0.2372" />
    <g
       id="g5"
       transform="matrix(0.26458333,0,0,0.26458333,-68.695889,-2.459141)"
       style="stroke:#004fce;stroke-opacity:1">
      <path
         style="fill:none;stroke:#004fce;stroke-width:15;stroke-linecap:round;stroke-linejoin:round;stroke-dashoffset:3.77953;stroke-opacity:1"
         d="m 769.97194,641.96086 -34.92572,-32.4515 z"
         id="path2-6"
         sodipodi:nodetypes="ccc" />
      <path
         style="fill:none;stroke:#004fce;stroke-width:15;stroke-linecap:round;stroke-linejoin:round;stroke-dashoffset:3.77953;stroke-opacity:1"
         d="m 735.04622,676.43041 34.92572,-34.46955 z"
         id="path3-7"
         sodipodi:nodetypes="ccc" />
      <path
         style="fill:none;stroke:#004fce;stroke-width:13.4263;stroke-linecap:round;stroke-linejoin:round;stroke-dashoffset:3.77953;stroke-opacity:1"
         d="M 761.76534,641.96086 H 697.79045 Z"
         id="path5" />
      <rect
         style="fill:none;stroke:#004fce;stroke-width:12.6376;stroke-linecap:round;stroke-linejoin:round;stroke-dasharray:none;stroke-dashoffset:3.77953;stroke-opacity:1"
         id="rect5"
         width="76.187721"
         height="68.386803"
         x="617.61401"
         y="607.76746" />
    </g>
  </g>
</svg>
