<?xml version="1.0" encoding="UTF-8" standalone="no"?>
<!-- Created with Inkscape (http://www.inkscape.org/) -->

<svg
   width="664.30859"
   height="368.08838"
   viewBox="0 0 664.30859 368.08838"
   version="1.1"
   id="svg5"
   xml:space="preserve"
   inkscape:version="1.4.1 (1:1.4.1+202503302257+93de688d07)"
   sodipodi:docname="logo.svg"
   xmlns:inkscape="http://www.inkscape.org/namespaces/inkscape"
   xmlns:sodipodi="http://sodipodi.sourceforge.net/DTD/sodipodi-0.dtd"
   xmlns="http://www.w3.org/2000/svg"
   xmlns:svg="http://www.w3.org/2000/svg"><sodipodi:namedview
     id="namedview7"
     pagecolor="#ffffff"
     bordercolor="#999999"
     borderopacity="1"
     inkscape:showpageshadow="0"
     inkscape:pageopacity="0"
     inkscape:pagecheckerboard="0"
     inkscape:deskcolor="#d1d1d1"
     inkscape:document-units="px"
     showgrid="false"
     inkscape:zoom="0.34583333"
     inkscape:cx="753.25302"
     inkscape:cy="-43.373494"
     inkscape:window-width="1920"
     inkscape:window-height="961"
     inkscape:window-x="0"
     inkscape:window-y="0"
     inkscape:window-maximized="1"
     inkscape:current-layer="text6" /><defs
     id="defs2"><inkscape:path-effect
       effect="fillet_chamfer"
       id="path-effect2"
       is_visible="true"
       lpeversion="1"
       nodesatellites_param="F,0,0,1,0,62.844139,0,1 @ F,0,0,1,0,59.080655,0,1 @ F,0,0,1,0,0,0,1 @ F,0,0,1,0,39.38186,0,1"
       radius="0"
       unit="px"
       method="auto"
       mode="F"
       chamfer_steps="1"
       flexible="false"
       use_knot_distance="true"
       apply_no_radius="true"
       apply_with_radius="true"
       only_selected="false"
       hide_knots="false" /><inkscape:path-effect
       effect="fillet_chamfer"
       id="path-effect1"
       is_visible="true"
       lpeversion="1"
       nodesatellites_param="F,0,1,1,0,40.332425,0,1 @ F,0,1,1,0,40.332425,0,1 @ F,0,0,1,0,0,0,1 @ F,0,0,1,0,0,0,1 @ F,0,0,1,0,0,0,1 @ F,0,0,1,0,0,0,1 @ F,0,0,1,0,0,0,1 @ F,0,0,1,0,0,0,1 | F,0,1,1,0,40.332425,0,1 @ F,0,0,1,0,0,0,1 @ F,0,0,1,0,0,0,1 @ F,0,0,1,0,0,0,1"
       radius="0"
       unit="px"
       method="auto"
       mode="F"
       chamfer_steps="1"
       flexible="false"
       use_knot_distance="true"
       apply_no_radius="true"
       apply_with_radius="true"
       only_selected="false"
       hide_knots="false" /></defs><g
     inkscape:label="Layer 1"
     inkscape:groupmode="layer"
     id="layer1"
     transform="translate(-455,-326.99999)"><g
       id="g1"><path
         id="path370"
         style="fill:none;stroke:#000000;stroke-width:13.1417;stroke-linejoin:round;stroke-dasharray:none;stroke-dashoffset:3.77953;stroke-opacity:1"
         d="m 576.6394,333.57084 a 57.009774,57.009774 0 0 0 -0.7793,0.0488 57.009774,57.009774 0 0 0 -0.7656,-0.0295 57.009774,57.009774 0 0 0 -2.918,0.26563 57.009774,57.009774 0 0 0 -3.6972,0.33592 57.009774,57.009774 0 0 0 -3.6367,0.71289 57.009774,57.009774 0 0 0 -3.6172,0.8125 57.009774,57.009774 0 0 0 -3.5,1.17578 57.009774,57.009774 0 0 0 -3.4961,1.28125 57.009774,57.009774 0 0 0 -3.3047,1.61328 57.009774,57.009774 0 0 0 -3.3106,1.72852 57.009774,57.009774 0 0 0 -3.08,2.03711 57.009774,57.009774 0 0 0 -3.0352,2.1289 57.009774,57.009774 0 0 0 -2.8164,2.44336 57.009774,57.009774 0 0 0 -2.7207,2.49414 57.009774,57.009774 0 0 0 -2.4512,2.75977 57.009774,57.009774 0 0 0 -2.3926,2.8457 57.009774,57.009774 0 0 0 -2.0742,3.05859 57.009774,57.009774 0 0 0 -2.0039,3.13672 57.009774,57.009774 0 0 0 -1.6465,3.27539 57.009774,57.009774 0 0 0 -1.5918,3.39649 57.009774,57.009774 0 0 0 -1.207,3.45703 57.009774,57.009774 0 0 0 -1.1348,3.56642 57.009774,57.009774 0 0 0 -0.7539,3.62305 57.009774,57.009774 0 0 0 -0.6582,3.64842 57.009774,57.009774 0 0 0 -0.2773,3.68946 57.009774,57.009774 0 0 0 -0.2207,2.93359 57.009774,57.009774 0 0 0 0.043,0.77541 57.009774,57.009774 0 0 0 -0.037,0.77148 57.009774,57.009774 0 0 0 0.2422,2.94727 57.009774,57.009774 0 0 0 0.3027,3.66407 57.009774,57.009774 0 0 0 0.6836,3.64841 57.009774,57.009774 0 0 0 0.7832,3.63281 57.009774,57.009774 0 0 0 1.1406,3.49024 57.009774,57.009774 0 0 0 1.252,3.51564 57.009774,57.009774 0 0 0 1.5976,3.34568 57.009774,57.009774 0 0 0 1.6856,3.29491 57.009774,57.009774 0 0 0 2.0117,3.09963 57.009774,57.009774 0 0 0 2.1152,3.0703 57.009774,57.009774 0 0 0 2.3848,2.79689 57.009774,57.009774 0 0 0 2.4922,2.7676 57.009774,57.009774 0 0 0 2.7656,2.49607 57.009774,57.009774 0 0 0 2.7989,2.39452 57.009774,57.009774 0 0 0 3.0703,2.12111 57.009774,57.009774 0 0 0 3.08,2.00587 57.009774,57.009774 0 0 0 3.334,1.71092 57.009774,57.009774 0 0 0 3.3086,1.58593 57.009774,57.009774 0 0 0 3.5137,1.25782 57.009774,57.009774 0 0 0 3.4902,1.14648 57.009774,57.009774 0 0 0 3.6543,0.79491 57.009774,57.009774 0 0 0 3.6133,0.68164 57.009774,57.009774 0 0 0 3.7129,0.31068 57.009774,57.009774 0 0 0 2.9102,0.24416 57.009774,57.009774 0 0 0 0.7714,-0.034 57.009774,57.009774 0 0 0 0.7754,0.0431 57.009774,57.009774 0 0 0 2.959,-0.21884 57.009774,57.009774 0 0 0 3.6524,-0.26759 57.009774,57.009774 0 0 0 3.6855,-0.6582 57.009774,57.009774 0 0 0 3.6055,-0.74612 57.009774,57.009774 0 0 0 3.5156,-1.11326 57.009774,57.009774 0 0 0 3.5234,-1.22268 57.009774,57.009774 0 0 0 3.3555,-1.56835 57.009774,57.009774 0 0 0 3.3027,-1.6543 57.009774,57.009774 0 0 0 3.1329,-1.99415 57.009774,57.009774 0 0 0 3.0761,-2.08007 57.009774,57.009774 0 0 0 2.8321,-2.37497 57.009774,57.009774 0 0 0 2.7695,-2.45118 57.009774,57.009774 0 0 0 2.5273,-2.74806 57.009774,57.009774 0 0 0 2.418,-2.78124 57.009774,57.009774 0 0 0 2.1426,-3.04883 57.009774,57.009774 0 0 0 2.0351,-3.06251 57.009774,57.009774 0 0 0 1.7325,-3.3086 57.009774,57.009774 0 0 0 1.621,-3.30663 57.009774,57.009774 0 0 0 1.2852,-3.49414 57.009774,57.009774 0 0 0 1.1797,-3.4961 57.009774,57.009774 0 0 0 0.8164,-3.60351 57.009774,57.009774 0 0 0 0.7227,-3.65235 57.009774,57.009774 0 0 0 0.3398,-3.68946 57.009774,57.009774 0 0 0 0.2695,-2.92188 57.009774,57.009774 0 0 0 -0.03,-0.76755 57.009774,57.009774 0 0 0 0.051,-0.77737 l -0.033,-1.95114 a 57.009774,57.009774 0 0 0 -0.1953,-1.95704 57.009774,57.009774 0 0 0 -0.3672,-3.68361 57.009774,57.009774 0 0 0 -0.6211,-3.65624 57.009774,57.009774 0 0 0 -0.836,-3.58397 57.009774,57.009774 0 0 0 -1.0996,-3.57425 57.009774,57.009774 0 0 0 -1.2968,-3.44727 57.009774,57.009774 0 0 0 -1.5409,-3.37217 57.009774,57.009774 0 0 0 -1.7442,-3.27344 57.009774,57.009774 0 0 0 -1.9667,-3.14257 57.009774,57.009774 0 0 0 -2.1426,-3.00391 57.009774,57.009774 0 0 0 -2.3633,-2.87109 57.009774,57.009774 0 0 0 -2.5215,-2.70313 57.009774,57.009774 0 0 0 -2.707,-2.53125 57.009774,57.009774 0 0 0 -2.8614,-2.36328 57.009774,57.009774 0 0 0 -3,-2.14844 57.009774,57.009774 0 0 0 -3.1484,-1.97461 57.009774,57.009774 0 0 0 -3.2656,-1.74805 57.009774,57.009774 0 0 0 -3.3613,-1.54101 57.009774,57.009774 0 0 0 -3.4707,-1.31055 57.009774,57.009774 0 0 0 -3.545,-1.0957 57.009774,57.009774 0 0 0 -3.5898,-0.84375 57.009774,57.009774 0 0 0 -3.668,-0.62891 57.009774,57.009774 0 0 0 -3.6719,-0.37109 57.009774,57.009774 0 0 0 -1.9589,-0.19727 z" /><path
         style="fill:none;stroke:#000000;stroke-width:15;stroke-linecap:round;stroke-linejoin:round;stroke-dashoffset:3.77953;stroke-opacity:1"
         d="M 546.6511,659.0969 515.7596,627.561 Z"
         id="path2"
         sodipodi:nodetypes="ccc" /><path
         style="fill:none;stroke:#000000;stroke-width:15;stroke-linecap:round;stroke-linejoin:round;stroke-dashoffset:3.77953;stroke-opacity:1"
         d="m 515.1039,689.7056 31.5472,-30.6087 z"
         id="path3"
         sodipodi:nodetypes="ccc" /><path
         id="path4"
         style="fill:none;stroke:#000000;stroke-width:15.8802;stroke-linecap:round;stroke-linejoin:round;stroke-dashoffset:3.77953;stroke-opacity:1"
         d="M 546.0742,659.0969 H 502.322 A 39.381861,39.381861 0 0 1 462.9401,619.715 v -78.33958 a 62.844141,62.844141 0 0 1 62.8441,-62.84413 v 0 H 631.096 a 59.080653,59.080653 0 0 1 59.0807,59.08066 v 0.89651" /><path
         style="fill:none;stroke:#000000;stroke-width:15;stroke-linecap:round;stroke-linejoin:round;stroke-dashoffset:3.77953;stroke-opacity:1"
         d="M 690.3339,583.6665 655.4082,551.21496 Z"
         id="path2-6"
         sodipodi:nodetypes="ccc" /><path
         style="fill:none;stroke:#000000;stroke-width:15;stroke-linecap:round;stroke-linejoin:round;stroke-dashoffset:3.77953;stroke-opacity:1"
         d="m 655.4082,618.136 34.9257,-34.4695 z"
         id="path3-7"
         sodipodi:nodetypes="ccc" /><path
         style="fill:none;stroke:#000000;stroke-width:13.4263;stroke-linecap:round;stroke-linejoin:round;stroke-dashoffset:3.77953;stroke-opacity:1"
         d="M 682.1273,583.6665 H 618.1524 Z"
         id="path5" /><rect
         style="fill:none;stroke:#000000;stroke-width:12.6376;stroke-linecap:round;stroke-linejoin:round;stroke-dasharray:none;stroke-dashoffset:3.77953;stroke-opacity:1"
         id="rect5"
         width="76.187721"
         height="68.386803"
         x="537.97601"
         y="549.47302" /><g
         id="text6"
         style="font-weight:bold;font-size:138.667px;line-height:0.8;font-family:'Roboto Slab';-inkscape-font-specification:'Roboto Slab Bold';stroke-width:15;stroke-linecap:round;stroke-linejoin:round;stroke-dashoffset:3.77953"
         aria-label="Test&#10;Flow"><path
           style="font-weight:800;font-family:'Inter 28pt';-inkscape-font-specification:'Inter 28pt Ultra-Bold';baseline-shift:baseline"
           d="m 725.24513,490.35393 v -20.44797 h 83.95853 v 20.44797 h -29.85944 v 80.4377 h -24.23965 v -80.4377 z m 112.3284,81.99499 q -11.1719,0 -19.56776,-4.73959 -8.32814,-4.7396 -12.93232,-13.27087 -4.60418,-8.53127 -4.60418,-19.70317 0,-11.1042 4.60418,-19.56776 4.60418,-8.53127 12.79691,-13.33857 8.26043,-4.87502 19.02608,-4.87502 8.05731,0 14.69275,2.70834 6.63543,2.64064 11.44273,7.58336 4.87502,4.87501 7.51565,11.71357 2.70834,6.83856 2.70834,15.23441 v 6.22918 h -65.06787 v -13.88024 h 54.03138 l -10.69794,2.91146 q 0,-4.73959 -1.69271,-8.12502 -1.69272,-3.45313 -4.87502,-5.28126 -3.11459,-1.89584 -7.58335,-1.89584 -4.40105,0 -7.58335,1.89584 -3.11459,1.82813 -4.8073,5.21356 -1.69271,3.38542 -1.69271,8.12502 v 10.15627 q 0,5.01043 1.76042,8.66669 1.82813,3.58855 5.21355,5.48439 3.38543,1.89584 8.05731,1.89584 3.38543,0 6.02606,-0.94792 2.70834,-0.94792 4.53647,-2.64064 1.82813,-1.76042 2.70834,-4.13021 l 20.98963,0.74479 q -1.42188,7.04168 -6.29689,12.45836 -4.87501,5.34897 -12.25524,8.39586 -7.38022,2.97917 -16.45316,2.97917 z m 77.66165,0.13542 q -9.88544,0 -17.5365,-2.91147 -7.58336,-2.97917 -12.18753,-8.39585 -4.53647,-5.48439 -5.34898,-13.00003 l 22.75006,-0.7448 q 0.74479,4.13022 3.79168,6.50002 3.11459,2.3698 8.39585,2.3698 4.87501,0 7.58335,-1.69272 2.77605,-1.69271 2.77605,-4.46876 0,-2.36979 -2.23438,-3.85938 -2.23438,-1.48959 -6.56773,-2.30209 l -13.00003,-2.3698 q -10.76565,-1.96354 -16.31775,-7.31252 -5.48438,-5.34897 -5.48438,-13.88024 0,-7.1771 3.85938,-12.39065 3.92709,-5.28127 11.1719,-8.12502 7.24481,-2.91147 17.26567,-2.91147 9.95315,0 17.19796,2.91147 7.24481,2.91146 11.37503,8.26043 4.13022,5.28127 4.53647,12.66149 l -21.32818,0.7448 q -0.27083,-3.72397 -3.31772,-6.09377 -3.04688,-2.4375 -7.71877,-2.4375 -4.46876,0 -7.10939,1.76042 -2.64063,1.76042 -2.64063,4.40105 0,2.30209 1.96355,3.85938 2.03125,1.48959 5.95834,2.30209 l 14.35421,2.57293 q 11.1719,2.09896 16.45316,6.90626 5.28126,4.80731 5.28126,12.79691 0,7.44793 -4.26563,13.06774 -4.26564,5.5521 -11.98441,8.66669 -7.65106,3.11459 -17.67191,3.11459 z m 89.23982,-74.14081 v 17.94275 h -49.56265 v -17.94275 z m -37.84908,-19.1615 h 23.42714 v 67.7762 q 0,3.31772 1.35417,4.67189 1.42188,1.28646 5.14584,1.28646 1.62501,0 4.13023,0 2.5052,-0.0677 3.5885,-0.13541 l 0.6771,17.80733 q -2.3021,0.27083 -6.02603,0.33854 -3.72397,0.13542 -7.51564,0.13542 -12.66149,0 -18.75526,-5.01043 -6.02605,-5.07814 -6.02605,-15.57295 z"
           id="path1" /><path
           style="font-weight:800;font-family:'Inter 28pt';-inkscape-font-specification:'Inter 28pt Ultra-Bold';baseline-shift:baseline"
           d="M 728.83368,682.57459 V 581.68892 h 71.83871 v 20.44797 h -47.59907 v 22.41151 h 44.28136 v 19.77089 h -44.28136 v 38.2553 z M 834.1881,581.68892 V 682.57459 H 810.76096 V 581.68892 Z m 48.34387,102.44296 c -7.58335,0 -14.21879,-1.55729 -19.9063,-4.67188 -5.64237,-3.11459 -10.02086,-7.49308 -13.13545,-13.13545 -3.11459,-5.64237 -4.67188,-12.27781 -4.67188,-19.9063 0,-7.58335 1.55729,-14.19622 4.67188,-19.83859 3.11459,-5.64237 7.49308,-10.04343 13.13545,-13.20316 5.68751,-3.15973 12.32295,-4.73959 19.9063,-4.73959 7.58335,0 14.19622,1.57986 19.83859,4.73959 5.64238,3.15973 10.02086,7.56079 13.13545,13.20316 3.11459,5.64237 4.67189,12.25524 4.67189,19.83859 0,7.62849 -1.5573,14.26393 -4.67189,19.9063 -3.11459,5.64237 -7.49307,10.02086 -13.13545,13.13545 -5.64237,3.11459 -12.25524,4.67188 -19.83859,4.67188 z m 0,-18.41671 c 2.75348,0 5.16842,-0.76736 7.24481,-2.30209 2.12153,-1.53473 3.76911,-3.74654 4.94272,-6.63543 1.17361,-2.88889 1.76042,-6.34203 1.76042,-10.3594 0,-4.10765 -0.58681,-7.58335 -1.76042,-10.42711 -1.17361,-2.84376 -2.82119,-5.033 -4.94272,-6.56772 -2.07639,-1.53473 -4.49133,-2.30209 -7.24481,-2.30209 -2.79861,0 -5.25869,0.76736 -7.38022,2.30209 -2.12153,1.48959 -3.76911,3.67883 -4.94272,6.56772 -1.12848,2.84376 -1.69272,6.31946 -1.69272,10.42711 0,4.06251 0.56424,7.53821 1.69272,10.42711 1.17361,2.84375 2.82119,5.03299 4.94272,6.56772 2.12153,1.53473 4.58161,2.30209 7.38022,2.30209 z m 62.35953,16.85942 -22.00526,-72.4481 h 24.51047 l 5.5521,23.15631 c 1.21875,5.23613 2.41494,10.72052 3.58855,16.45317 1.21875,5.73265 2.39237,11.51044 3.52084,17.33337 h -2.97917 c 1.26389,-5.82293 2.57292,-11.60072 3.92709,-17.33337 1.35417,-5.73265 2.68577,-11.21704 3.9948,-16.45317 l 5.95835,-23.15631 h 20.7188 l 5.89064,23.15631 c 1.30903,5.23613 2.61809,10.72052 3.92709,16.45317 1.3542,5.73265 2.6632,11.51044 3.9271,17.33337 h -2.9115 c 1.1285,-5.82293 2.257,-11.57816 3.3855,-17.26567 1.1285,-5.73265 2.2795,-11.23961 3.4531,-16.52087 l 5.4167,-23.15631 h 24.9844 l -22.073,72.4481 h -24.10419 l -7.85419,-26.81257 c -0.72222,-2.61806 -1.44444,-5.37154 -2.16667,-8.26044 -0.72222,-2.88889 -1.44444,-5.82293 -2.16667,-8.8021 -0.67709,-2.97917 -1.37674,-5.8455 -2.09896,-8.59898 h 3.9948 c -0.67709,2.75348 -1.37674,5.61981 -2.09897,8.59898 -0.72222,2.97917 -1.44444,5.91321 -2.16667,8.8021 -0.67708,2.8889 -1.3993,5.64238 -2.16667,8.26044 l -7.92189,26.81257 z"
           id="path6"
           sodipodi:nodetypes="ccccccccccccccccscssscsssssssscssscsccscsscccccccsccccccccccccccscccscccc" /></g></g></g></svg>
