<?xml version="1.0" encoding="UTF-8" standalone="no"?>
<!-- Created with Inkscape (http://www.inkscape.org/) -->

<svg
   width="175.765mm"
   height="97.390045mm"
   viewBox="0 0 175.765 97.390045"
   version="1.1"
   id="svg1"
   inkscape:version="1.4.1 (1:1.4.1+202503302257+93de688d07)"
   sodipodi:docname="logo-white.svg"
   xmlns:inkscape="http://www.inkscape.org/namespaces/inkscape"
   xmlns:sodipodi="http://sodipodi.sourceforge.net/DTD/sodipodi-0.dtd"
   xmlns="http://www.w3.org/2000/svg"
   xmlns:svg="http://www.w3.org/2000/svg">
  <sodipodi:namedview
     id="namedview1"
     pagecolor="#ffffff"
     bordercolor="#999999"
     borderopacity="1"
     inkscape:showpageshadow="0"
     inkscape:pageopacity="0"
     inkscape:pagecheckerboard="0"
     inkscape:deskcolor="#d1d1d1"
     inkscape:document-units="mm"
     inkscape:zoom="0.69308361"
     inkscape:cx="335.45736"
     inkscape:cy="184.6819"
     inkscape:window-width="1920"
     inkscape:window-height="961"
     inkscape:window-x="0"
     inkscape:window-y="0"
     inkscape:window-maximized="1"
     inkscape:current-layer="layer1" />
  <defs
     id="defs1" />
  <g
     inkscape:label="Layer 1"
     inkscape:groupmode="layer"
     id="layer1"
     transform="translate(-17.117499,-99.534555)">
    <path
       id="path370"
       style="fill:none;stroke:#ffffff;stroke-width:3.47707;stroke-linejoin:round;stroke-dasharray:none;stroke-dashoffset:3.77953;stroke-opacity:1"
       d="m 49.301244,101.27309 a 15.083836,15.083836 0 0 0 -0.20619,0.0129 15.083836,15.083836 0 0 0 -0.20257,-0.008 15.083836,15.083836 0 0 0 -0.77205,0.0703 15.083836,15.083836 0 0 0 -0.97823,0.0889 15.083836,15.083836 0 0 0 -0.96222,0.18862 15.083836,15.083836 0 0 0 -0.95704,0.21497 15.083836,15.083836 0 0 0 -0.926037,0.3111 15.083836,15.083836 0 0 0 -0.92501,0.33899 15.083836,15.083836 0 0 0 -0.87437,0.42685 15.083836,15.083836 0 0 0 -0.87591,0.45734 15.083836,15.083836 0 0 0 -0.81494,0.53898 15.083836,15.083836 0 0 0 -0.80305,0.56327 15.083836,15.083836 0 0 0 -0.745177,0.64648 15.083836,15.083836 0 0 0 -0.71985,0.6599 15.083836,15.083836 0 0 0 -0.64854,0.73019 15.083836,15.083836 0 0 0 -0.63303,0.75293 15.083836,15.083836 0 0 0 -0.54881,0.80925 15.083836,15.083836 0 0 0 -0.5302,0.82992 15.083836,15.083836 0 0 0 -0.43563,0.86662 15.083836,15.083836 0 0 0 -0.42116,0.89865 15.083836,15.083836 0 0 0 -0.31936,0.91468 15.083836,15.083836 0 0 0 -0.30024,0.94361 15.083836,15.083836 0 0 0 -0.19948,0.9586 15.083836,15.083836 0 0 0 -0.17414,0.96531 15.083836,15.083836 0 0 0 -0.0734,0.97617 15.083836,15.083836 0 0 0 -0.0584,0.77618 15.083836,15.083836 0 0 0 0.0114,0.20516 15.083836,15.083836 0 0 0 -0.01,0.20412 15.083836,15.083836 0 0 0 0.0641,0.7798 15.083836,15.083836 0 0 0 0.0801,0.96945 15.083836,15.083836 0 0 0 0.18086,0.96531 15.083836,15.083836 0 0 0 0.20723,0.96118 15.083836,15.083836 0 0 0 0.30179,0.92346 15.083836,15.083836 0 0 0 0.33124,0.93018 15.083836,15.083836 0 0 0 0.42271,0.88521 15.083836,15.083836 0 0 0 0.44597,0.87178 15.083836,15.083836 0 0 0 0.53227,0.82011 15.083836,15.083836 0 0 0 0.55966,0.81235 15.083836,15.083836 0 0 0 0.63097,0.74001 15.083836,15.083836 0 0 0 0.65939,0.73226 15.083836,15.083836 0 0 0 0.731727,0.66042 15.083836,15.083836 0 0 0 0.74053,0.63355 15.083836,15.083836 0 0 0 0.81235,0.56121 15.083836,15.083836 0 0 0 0.81494,0.53072 15.083836,15.083836 0 0 0 0.88211,0.45268 15.083836,15.083836 0 0 0 0.87541,0.41961 15.083836,15.083836 0 0 0 0.92965,0.3328 15.083836,15.083836 0 0 0 0.923457,0.30334 15.083836,15.083836 0 0 0 0.96687,0.21032 15.083836,15.083836 0 0 0 0.95601,0.18035 15.083836,15.083836 0 0 0 0.98237,0.0822 15.083836,15.083836 0 0 0 0.76998,0.0646 15.083836,15.083836 0 0 0 0.20412,-0.009 15.083836,15.083836 0 0 0 0.20516,0.0114 15.083836,15.083836 0 0 0 0.782887,-0.0579 15.083836,15.083836 0 0 0 0.96635,-0.0708 15.083836,15.083836 0 0 0 0.97514,-0.17415 15.083836,15.083836 0 0 0 0.95395,-0.19741 15.083836,15.083836 0 0 0 0.93017,-0.29455 15.083836,15.083836 0 0 0 0.93224,-0.3235 15.083836,15.083836 0 0 0 0.887797,-0.41496 15.083836,15.083836 0 0 0 0.87385,-0.4377 15.083836,15.083836 0 0 0 0.82889,-0.52762 15.083836,15.083836 0 0 0 0.81391,-0.55035 15.083836,15.083836 0 0 0 0.74931,-0.62838 15.083836,15.083836 0 0 0 0.73277,-0.64854 15.083836,15.083836 0 0 0 0.668687,-0.72709 15.083836,15.083836 0 0 0 0.63975,-0.73587 15.083836,15.083836 0 0 0 0.56689,-0.80667 15.083836,15.083836 0 0 0 0.53847,-0.81029 15.083836,15.083836 0 0 0 0.45837,-0.8754 15.083836,15.083836 0 0 0 0.42892,-0.87488 15.083836,15.083836 0 0 0 0.34003,-0.92449 15.083836,15.083836 0 0 0 0.31212,-0.92501 15.083836,15.083836 0 0 0 0.21601,-0.95343 15.083836,15.083836 0 0 0 0.1912,-0.96635 15.083836,15.083836 0 0 0 0.0899,-0.97617 15.083836,15.083836 0 0 0 0.0713,-0.77308 15.083836,15.083836 0 0 0 -0.008,-0.20308 15.083836,15.083836 0 0 0 0.0134,-0.20568 l -0.009,-0.51624 a 15.083836,15.083836 0 0 0 -0.0517,-0.5178 15.083836,15.083836 0 0 0 -0.0971,-0.97462 15.083836,15.083836 0 0 0 -0.16433,-0.96738 15.083836,15.083836 0 0 0 -0.22117,-0.94826 15.083836,15.083836 0 0 0 -0.29094,-0.94569 15.083836,15.083836 0 0 0 -0.34313,-0.91209 15.083836,15.083836 0 0 0 -0.40769,-0.89222 15.083836,15.083836 0 0 0 -0.46147,-0.8661 15.083836,15.083836 0 0 0 -0.52038,-0.83147 15.083836,15.083836 0 0 0 -0.56689,-0.79478 15.083836,15.083836 0 0 0 -0.62529,-0.75964 15.083836,15.083836 0 0 0 -0.667137,-0.71521 15.083836,15.083836 0 0 0 -0.71624,-0.66972 15.083836,15.083836 0 0 0 -0.75706,-0.62529 15.083836,15.083836 0 0 0 -0.79375,-0.56844 15.083836,15.083836 0 0 0 -0.83302,-0.52245 15.083836,15.083836 0 0 0 -0.86403,-0.4625 15.083836,15.083836 0 0 0 -0.889347,-0.40773 15.083836,15.083836 0 0 0 -0.91829,-0.34675 15.083836,15.083836 0 0 0 -0.93793,-0.2899 15.083836,15.083836 0 0 0 -0.94981,-0.22324 15.083836,15.083836 0 0 0 -0.97049,-0.1664 15.083836,15.083836 0 0 0 -0.97151,-0.0982 15.083836,15.083836 0 0 0 -0.518307,-0.0522 z" />
    <path
       style="fill:none;stroke:#ffffff;stroke-width:3.96875;stroke-linecap:round;stroke-linejoin:round;stroke-dashoffset:3.77953;stroke-opacity:1"
       d="m 41.366847,187.40185 -8.173384,-8.34386 z"
       id="path2"
       sodipodi:nodetypes="ccc" />
    <path
       style="fill:none;stroke:#ffffff;stroke-width:3.96875;stroke-linecap:round;stroke-linejoin:round;stroke-dashoffset:3.77953;stroke-opacity:1"
       d="m 33.019973,195.50041 8.346874,-8.09856 z"
       id="path3"
       sodipodi:nodetypes="ccc" />
    <path
       id="path4"
       style="fill:none;stroke:#ffffff;stroke-width:4.20164;stroke-linecap:round;stroke-linejoin:round;stroke-dashoffset:3.77953;stroke-opacity:1"
       d="M 41.214207,187.40185 H 29.638093 A 10.419784,10.419784 0 0 1 19.218319,176.98206 V 156.25471 A 16.627512,16.627512 0 0 1 35.84582,139.6272 v 0 h 27.863725 a 15.631756,15.631756 0 0 1 15.631751,15.63176 v 0.2372" />
    <path
       style="fill:none;stroke:#ffffff;stroke-width:3.96875;stroke-linecap:round;stroke-linejoin:round;stroke-dashoffset:3.77953;stroke-opacity:1"
       d="m 79.382896,167.44422 -9.240754,-8.58613 z"
       id="path2-6"
       sodipodi:nodetypes="ccc" />
    <path
       style="fill:none;stroke:#ffffff;stroke-width:3.96875;stroke-linecap:round;stroke-linejoin:round;stroke-dashoffset:3.77953;stroke-opacity:1"
       d="m 70.142142,176.56429 9.240754,-9.12007 z"
       id="path3-7"
       sodipodi:nodetypes="ccc" />
    <path
       style="fill:none;stroke:#ffffff;stroke-width:3.55238;stroke-linecap:round;stroke-linejoin:round;stroke-dashoffset:3.77953;stroke-opacity:1"
       d="M 77.211566,167.44422 H 60.284888 Z"
       id="path5" />
    <rect
       style="fill:none;stroke:#ffffff;stroke-width:3.3437;stroke-linecap:round;stroke-linejoin:round;stroke-dasharray:none;stroke-dashoffset:3.77953;stroke-opacity:1"
       id="rect5"
       width="20.158001"
       height="18.094007"
       x="39.071568"
       y="158.39717" />
    <g
       id="text6"
       style="font-weight:bold;font-size:36.689px;line-height:0.8;font-family:'Roboto Slab';-inkscape-font-specification:'Roboto Slab Bold';fill:#ffffff;stroke-width:3.96875;stroke-linecap:round;stroke-linejoin:round;stroke-dashoffset:3.77953"
       transform="scale(-1,1)"
       aria-label="Test&#10;Flow">
      <path
         style="font-weight:800;font-family:'Inter 28pt';-inkscape-font-specification:'Inter 28pt Ultra-Bold';baseline-shift:baseline"
         d="m -88.61981,142.75522 v -5.4102 h -22.21405 v 5.4102 h 7.90032 v 21.28248 h 6.41341 v -21.28248 z m -29.72024,21.69452 q 2.9559,0 5.1773,-1.25402 2.20349,-1.25402 3.42168,-3.51125 1.21819,-2.25723 1.21819,-5.21314 0,-2.93798 -1.21819,-5.1773 -1.21819,-2.25723 -3.38585,-3.52917 -2.18557,-1.28984 -5.03399,-1.28984 -2.13183,0 -3.88745,0.71658 -1.75563,0.69866 -3.02756,2.00643 -1.28985,1.28984 -1.98852,3.09921 -0.71658,1.80937 -0.71658,4.03078 v 1.64814 h 17.21588 v -3.67249 h -14.29581 l 2.8305,0.77033 q 0,-1.25402 0.44786,-2.14975 0.44787,-0.91364 1.28985,-1.39733 0.82407,-0.50161 2.00643,-0.50161 1.16445,0 2.00643,0.50161 0.82407,0.48369 1.27193,1.37942 0.44787,0.89573 0.44787,2.14975 v 2.68718 q 0,1.32567 -0.46578,2.29306 -0.48369,0.94947 -1.37942,1.45108 -0.89573,0.50161 -2.13183,0.50161 -0.89573,0 -1.5944,-0.25081 -0.71658,-0.2508 -1.20027,-0.69867 -0.4837,-0.46577 -0.71658,-1.09278 l -5.55352,0.19706 q 0.37621,1.86311 1.66606,3.29627 1.28985,1.41525 3.24253,2.22141 1.95269,0.78824 4.35324,0.78824 z m -20.54799,0.0358 q 2.61552,0 4.63987,-0.77033 2.00643,-0.78824 3.22462,-2.2214 1.20027,-1.45108 1.41525,-3.4396 l -6.01929,-0.19706 q -0.19706,1.09279 -1.00322,1.7198 -0.82407,0.62701 -2.2214,0.62701 -1.28985,0 -2.00643,-0.44786 -0.7345,-0.44787 -0.7345,-1.18236 0,-0.62701 0.59118,-1.02113 0.59118,-0.39412 1.73772,-0.6091 l 3.43959,-0.62701 q 2.84841,-0.51952 4.31741,-1.93477 1.45107,-1.41525 1.45107,-3.67248 0,-1.89894 -1.02113,-3.27836 -1.03904,-1.39734 -2.9559,-2.14975 -1.91685,-0.77033 -4.56821,-0.77033 -2.63344,0 -4.55029,0.77033 -1.91686,0.77033 -3.00965,2.18558 -1.09278,1.39733 -1.20027,3.35002 l 5.64308,0.19706 q 0.0717,-0.9853 0.87781,-1.61231 0.80616,-0.64493 2.04226,-0.64493 1.18236,0 1.88103,0.46578 0.69867,0.46578 0.69867,1.16445 0,0.60909 -0.51952,1.02113 -0.53744,0.39412 -1.57648,0.60909 l -3.79789,0.68075 q -2.9559,0.55536 -4.35323,1.82729 -1.39734,1.27193 -1.39734,3.38585 0,1.9706 1.12862,3.45751 1.12861,1.46899 3.17087,2.29306 2.02435,0.82407 4.6757,0.82407 z m -23.61138,-19.61643 v 4.74735 h 13.11345 v -4.74735 z m 10.01424,-5.06982 h -6.19844 v 17.93246 q 0,0.87782 -0.35829,1.23611 -0.3762,0.34037 -1.36151,0.34037 -0.42994,0 -1.09278,0 -0.66284,-0.0179 -0.94947,-0.0358 l -0.17915,4.71153 q 0.6091,0.0717 1.5944,0.0896 0.9853,0.0358 1.98851,0.0358 3.35002,0 4.96233,-1.32567 1.5944,-1.3436 1.5944,-4.12035 z"
         id="path1" />
      <path
         style="font-weight:800;font-family:'Inter 28pt';-inkscape-font-specification:'Inter 28pt Ultra-Bold';baseline-shift:baseline"
         d="m -89.56928,193.61363 v -26.69268 h -19.00734 v 5.41019 h 12.59393 v 5.92972 h -11.71612 v 5.23105 h 11.71612 v 10.12172 z m -27.87505,-26.69268 v 26.69268 h 6.19844 v -26.69268 z m -12.79098,27.10471 q 3.00964,0 5.26687,-1.2361 2.23932,-1.2361 3.47543,-3.47542 1.2361,-2.23932 1.2361,-5.26688 0,-3.00965 -1.2361,-5.24896 -1.23611,-2.23932 -3.47543,-3.49334 -2.25723,-1.25402 -5.26687,-1.25402 -3.00965,0 -5.24897,1.25402 -2.23932,1.25402 -3.47542,3.49334 -1.2361,2.23931 -1.2361,5.24896 0,3.02756 1.2361,5.26688 1.2361,2.23932 3.47542,3.47542 2.23932,1.2361 5.24897,1.2361 z m 0,-4.87275 q -1.09279,0 -1.91686,-0.6091 -0.84198,-0.60909 -1.30776,-1.75562 -0.46578,-1.14654 -0.46578,-2.74093 0,-1.63022 0.46578,-2.75884 0.46578,-1.12862 1.30776,-1.73771 0.82407,-0.6091 1.91686,-0.6091 1.1107,0 1.95268,0.6091 0.84199,0.59118 1.30776,1.73771 0.44787,1.12862 0.44787,2.75884 0,1.61231 -0.44787,2.75884 -0.46577,1.12862 -1.30776,1.73771 -0.84198,0.6091 -1.95268,0.6091 z m -16.49931,4.46072 5.82223,-19.16857 h -6.48506 l -1.469,6.12678 q -0.48369,2.07808 -0.94947,4.35323 -0.48369,2.27515 -0.93155,4.58613 h 0.78824 q -0.50161,-2.31098 -1.03905,-4.58613 -0.53743,-2.27515 -1.05696,-4.35323 l -1.57648,-6.12678 h -5.48185 l -1.55856,6.12678 q -0.51953,2.07808 -1.03905,4.35323 -0.53744,2.27515 -1.03904,4.58613 h 0.77032 q -0.44786,-2.31098 -0.89573,-4.56821 -0.44786,-2.27515 -0.91364,-4.37115 l -1.43316,-6.12678 h -6.61047 l 5.84014,19.16857 h 6.37758 l 2.07809,-7.09416 q 0.28663,-1.03905 0.57327,-2.18558 0.28663,-1.14653 0.57326,-2.32889 0.26872,-1.18236 0.55535,-2.27515 h -1.05696 q 0.26872,1.09279 0.55536,2.27515 0.28663,1.18236 0.57326,2.32889 0.26872,1.14653 0.57327,2.18558 l 2.096,7.09416 z"
         id="path6" />
    </g>
  </g>
</svg>
